<svg class="animated" id="freepik_stories-alien-spaceship" xmlns="http://www.w3.org/2000/svg" viewBox="0 0 500 500" version="1.1" xmlns:xlink="http://www.w3.org/1999/xlink" xmlns:svgjs="http://svgjs.com/svgjs"><style>svg#freepik_stories-alien-spaceship:not(.animated) .animable {opacity: 0;}svg#freepik_stories-alien-spaceship.animated #freepik--Moon--inject-30 {animation: 1.5s Infinite  linear heartbeat;animation-delay: 0s;}svg#freepik_stories-alien-spaceship.animated #freepik--Spaceship--inject-30 {animation: 2.8s 1 forwards cubic-bezier(.36,-0.01,.5,1.38) zoomOut;animation-delay: 0s;}            @keyframes heartbeat {                0% {                    transform: scale(1);                }                10% {                    transform: scale(1.1);                }                30% {                    transform: scale(1);                }                40% {                    transform: scale(1);                }                50% {                    transform: scale(1.1);                }                60% {                    transform: scale(1);                }                100% {                    transform: scale(1);                }            }                    @keyframes zoomOut {                0% {                    opacity: 0;                    transform: scale(1.5);                }                100% {                    opacity: 1;                    transform: scale(1);                }            }        .animator-hidden { display: none; }</style><g id="freepik--background-complete--inject-30" class="animable" style="transform-origin: 250px 258.316px;"><path d="M263.45,195c4.77,0,123.93-.83,157.58-.83,2.36,0-.62-4.07-1.92-4.36-4.14-.9-8.45-.95-12.65-1.39a41.48,41.48,0,0,1-12.06-3c-3.31-1.4-6.62-3-10.21-3.57-6.93-1.09-13,2.67-19.52,4.33a14.74,14.74,0,0,1-11.82-1.62c-3-1.8-5.74-4-8.88-5.56A48.75,48.75,0,0,0,305,177.2a45,45,0,0,0-8.51,4.36c-3.18,2.08-5.92,4.75-9.1,6.8-7.06,4.57-15.79,3.09-23.48,5.7C263.51,194.21,263,195,263.45,195Z" style="fill: rgb(235, 235, 235); transform-origin: 342.593px 184.49px;" id="elyz2v8d4js1" class="animable"></path><path d="M103.58,336.64c4.77,0,123.92-.83,157.58-.83,2.35,0-.62-4.08-1.92-4.36-4.14-.91-8.45-.95-12.66-1.39a41.56,41.56,0,0,1-12.06-3c-3.31-1.4-6.61-3-10.2-3.57-6.93-1.09-13,2.67-19.52,4.33A14.74,14.74,0,0,1,193,326.18c-3-1.8-5.74-4-8.88-5.56a48.75,48.75,0,0,0-38.94-1.78,44.75,44.75,0,0,0-8.52,4.36c-3.17,2.08-5.91,4.75-9.1,6.8-7.05,4.57-15.78,3.09-23.48,5.7C103.64,335.84,103.16,336.64,103.58,336.64Z" style="fill: rgb(235, 235, 235); transform-origin: 182.728px 326.129px;" id="elgwrmw0vs3pr" class="animable"></path><path d="M50.27,297.61c6.31,0,112.54.7,119.22.49.48,0,.74-.72.26-1-4.21-2.08-9-1.66-13.36-3.14-2.57-.86-4.15-2.55-5.94-4.48a12.36,12.36,0,0,0-5.52-3.6,11.61,11.61,0,0,0-6-.19c-2.16.51-4,1.74-6.08,2.52-5.11,1.93-10.07.1-13.71-3.68-3-3.11-6-6.05-10.05-7.72a13.31,13.31,0,0,0-10.64-.15c-3.89,1.76-6.57,5.32-10.23,7.45-4.34,2.54-9.53,1.94-14.32,2.7s-8.47,4.8-12.67,7.13a9.06,9.06,0,0,1-4.58,1.42c-.94,0-1.86-.28-2.79-.4-1.45-.18-2.82-.14-3.8,1.07C49.81,296.37,49.86,297.61,50.27,297.61Z" style="fill: rgb(235, 235, 235); transform-origin: 109.957px 286.882px;" id="el1dm9u3sv8u8" class="animable"></path><path d="M93.78,192.31c4.61,0,82.17.51,87,.36.35,0,.54-.53.19-.7-3.07-1.52-6.56-1.22-9.75-2.29a10.36,10.36,0,0,1-4.33-3.27,9.11,9.11,0,0,0-4-2.64,8.49,8.49,0,0,0-4.39-.13,36.57,36.57,0,0,0-4.45,1.84c-3.72,1.41-7.34.07-10-2.69-2.2-2.27-4.35-4.41-7.34-5.64a9.77,9.77,0,0,0-7.77-.11c-2.84,1.29-4.79,3.89-7.46,5.44-3.17,1.86-7,1.42-10.46,2s-6.18,3.5-9.25,5.2a6.56,6.56,0,0,1-3.35,1,19.81,19.81,0,0,1-2-.28,2.79,2.79,0,0,0-2.77.78C93.44,191.4,93.48,192.31,93.78,192.31Z" style="fill: rgb(235, 235, 235); transform-origin: 137.337px 184.493px;" id="elx5m223bio09" class="animable"></path><path d="M375.27,233.91c4.61,0,82.17.51,87,.36.35,0,.54-.53.19-.7-3.07-1.52-6.56-1.21-9.75-2.29a10.28,10.28,0,0,1-4.33-3.27,9.11,9.11,0,0,0-4-2.64,8.49,8.49,0,0,0-4.39-.13,36.57,36.57,0,0,0-4.45,1.84c-3.72,1.41-7.34.07-10-2.69-2.2-2.27-4.35-4.41-7.34-5.64a9.72,9.72,0,0,0-7.77-.1c-2.84,1.28-4.79,3.88-7.46,5.44-3.17,1.85-7,1.41-10.46,2s-6.18,3.5-9.25,5.2a6.57,6.57,0,0,1-3.35,1c-.68,0-1.36-.21-2-.29a2.79,2.79,0,0,0-2.77.78C374.93,233,375,233.91,375.27,233.91Z" style="fill: rgb(235, 235, 235); transform-origin: 418.832px 226.093px;" id="elqezurnaqtt" class="animable"></path><path d="M37.59,462.81c-.57-.24-.82.7-.25.93a3.16,3.16,0,0,1,1.83,3.81.48.48,0,0,0,.93.26A4.13,4.13,0,0,0,37.59,462.81Z" style="fill: rgb(235, 235, 235); transform-origin: 38.6385px 465.467px;" id="el4x4be2nus4g" class="animable"></path><path d="M41.84,461.9a7.36,7.36,0,0,0-.56,4.29c.09.61,1,.35.93-.26a6.32,6.32,0,0,1,.46-3.54C42.92,461.83,42.09,461.33,41.84,461.9Z" style="fill: rgb(235, 235, 235); transform-origin: 41.9461px 464.093px;" id="elb0jzmh8eq4u" class="animable"></path><path d="M397.54,468.92c-.58-.24-.83.7-.26.94a3.14,3.14,0,0,1,1.83,3.81.49.49,0,0,0,.94.25A4.15,4.15,0,0,0,397.54,468.92Z" style="fill: rgb(235, 235, 235); transform-origin: 398.582px 471.554px;" id="el2t5dcoccd6m" class="animable"></path><path d="M401.78,468a7.51,7.51,0,0,0-.56,4.29c.1.61,1,.35.94-.26a6.23,6.23,0,0,1,.46-3.54C402.87,467.94,402,467.45,401.78,468Z" style="fill: rgb(235, 235, 235); transform-origin: 401.893px 470.198px;" id="elt4rappmfluk" class="animable"></path><path d="M132.05,460.61c-.58-.24-.83.7-.26.94a3.15,3.15,0,0,1,1.83,3.8.49.49,0,0,0,.94.26A4.15,4.15,0,0,0,132.05,460.61Z" style="fill: rgb(235, 235, 235); transform-origin: 133.092px 463.247px;" id="ellgx7uu5zlad" class="animable"></path><path d="M136.29,459.71a7.41,7.41,0,0,0-.56,4.28c.1.62,1,.36.93-.25a6.24,6.24,0,0,1,.47-3.54C137.38,459.63,136.54,459.14,136.29,459.71Z" style="fill: rgb(235, 235, 235); transform-origin: 136.402px 461.901px;" id="elv2ktytfim3" class="animable"></path><path d="M189.11,461.34c-.55-.3-1,.54-.49.83a3,3,0,0,1,1.6,2.94c-.05.62.92.62,1,0A3.9,3.9,0,0,0,189.11,461.34Z" style="fill: rgb(235, 235, 235); transform-origin: 189.814px 463.426px;" id="elsbjkt18n6kt" class="animable"></path><path d="M192,459.82c-.29-.55-1.13-.06-.83.49a7.78,7.78,0,0,1,.91,4.15c0,.62.94.62,1,0A8.62,8.62,0,0,0,192,459.82Z" style="fill: rgb(235, 235, 235); transform-origin: 192.099px 462.252px;" id="el9v8cin94u8" class="animable"></path><path d="M194.24,460.46a5.09,5.09,0,0,0-.61,3.1c.07.61,1,.62,1,0a4.17,4.17,0,0,1,.48-2.61C195.38,460.41,194.54,459.92,194.24,460.46Z" style="fill: rgb(235, 235, 235); transform-origin: 194.378px 462.123px;" id="elrrd7gla3y7" class="animable"></path><path d="M457,457.67c-.55-.29-1,.55-.49.84a3,3,0,0,1,1.6,2.93c-.05.63.92.62,1,0A3.92,3.92,0,0,0,457,457.67Z" style="fill: rgb(235, 235, 235); transform-origin: 457.704px 459.759px;" id="elmh3cao0obkj" class="animable"></path><path d="M459.83,456.16c-.29-.55-1.13-.07-.83.48a7.78,7.78,0,0,1,.91,4.15c0,.62.94.62,1,0A8.58,8.58,0,0,0,459.83,456.16Z" style="fill: rgb(235, 235, 235); transform-origin: 459.929px 458.586px;" id="el8or4fw16uaw" class="animable"></path><path d="M462.08,456.8a5,5,0,0,0-.61,3.09c.07.62,1,.62,1,0a4.12,4.12,0,0,1,.48-2.6A.49.49,0,0,0,462.08,456.8Z" style="fill: rgb(235, 235, 235); transform-origin: 462.222px 458.451px;" id="eltbk9u3mv3mh" class="animable"></path><path d="M264.4,457.13a.49.49,0,0,1,.49.84,4,4,0,0,0-1.95,3.66c0,.62-.94.62-1,0A4.94,4.94,0,0,1,264.4,457.13Z" style="fill: rgb(235, 235, 235); transform-origin: 263.509px 459.593px;" id="elxhmwbccfmhe" class="animable"></path><path d="M260.85,459.46c.11.65.22,1.3.34,2s-.83.87-.94.25l-.33-2C259.81,459.1,260.75,458.84,260.85,459.46Z" style="fill: rgb(235, 235, 235); transform-origin: 260.556px 460.598px;" id="elm9so4tvwkv" class="animable"></path><path d="M96.76,469.39c-.48-.39-1.17.29-.69.69a4.48,4.48,0,0,1,1.68,3.79c0,.63.94.63,1,0A5.43,5.43,0,0,0,96.76,469.39Z" style="fill: rgb(235, 235, 235); transform-origin: 97.3322px 471.808px;" id="el2gpvcx6526" class="animable"></path><path d="M377.77,463.8c.48-.39,1.17.29.68.69a4.53,4.53,0,0,0-1.67,3.8c0,.62-.94.62-1,0A5.43,5.43,0,0,1,377.77,463.8Z" style="fill: rgb(235, 235, 235); transform-origin: 377.195px 466.219px;" id="elmud4pjj3nnj" class="animable"></path><path d="M341.85,467.75a5.73,5.73,0,0,0-1.54,5.13c.11.61,1,.35.93-.26a4.72,4.72,0,0,1,1.29-4.18C343,468,342.28,467.3,341.85,467.75Z" style="fill: rgb(235, 235, 235); transform-origin: 341.443px 470.416px;" id="ell5vihfigv7l" class="animable"></path><path d="M338.31,468.28v3.26a.49.49,0,0,0,1,0v-3.26A.49.49,0,0,0,338.31,468.28Z" style="fill: rgb(235, 235, 235); transform-origin: 338.81px 469.91px;" id="elywbo5wv9eto" class="animable"></path><path d="M343.5,469.31a3,3,0,0,0-1.37,2.63c0,.63,1,.63,1,0a2,2,0,0,1,.89-1.8C344.51,469.8,344,469,343.5,469.31Z" style="fill: rgb(235, 235, 235); transform-origin: 343.173px 470.826px;" id="elc34ah0l4vt" class="animable"></path><path d="M241.06,467.35a5.78,5.78,0,0,0-1.54,5.13c.11.61,1,.35.94-.26a4.72,4.72,0,0,1,1.29-4.18C242.18,467.59,241.5,466.9,241.06,467.35Z" style="fill: rgb(235, 235, 235); transform-origin: 240.651px 470.016px;" id="elavisoa2j4eq" class="animable"></path><path d="M237.53,467.88v3.26a.49.49,0,0,0,1,0v-3.26A.49.49,0,0,0,237.53,467.88Z" style="fill: rgb(235, 235, 235); transform-origin: 238.03px 469.51px;" id="el3rkirnw3lx3" class="animable"></path><path d="M242.72,468.91a3,3,0,0,0-1.37,2.63.49.49,0,0,0,1,0,2,2,0,0,1,.89-1.8C243.73,469.4,243.24,468.56,242.72,468.91Z" style="fill: rgb(235, 235, 235); transform-origin: 242.395px 470.433px;" id="eldf1koor5rvl" class="animable"></path><polygon points="341.64 217.87 342.53 219.67 344.51 219.96 343.08 221.35 343.42 223.33 341.64 222.4 339.87 223.33 340.21 221.35 338.77 219.96 340.76 219.67 341.64 217.87" style="fill: rgb(219, 219, 219); transform-origin: 341.64px 220.6px;" id="elh9y9rvp98no" class="animable"></polygon><polygon points="451.97 293.94 452.86 295.74 454.84 296.02 453.41 297.42 453.75 299.4 451.97 298.46 450.2 299.4 450.54 297.42 449.11 296.02 451.09 295.74 451.97 293.94" style="fill: rgb(219, 219, 219); transform-origin: 451.975px 296.67px;" id="elzux3y15g75c" class="animable"></polygon><polygon points="147.19 66.64 148.08 68.43 150.06 68.72 148.63 70.12 148.97 72.09 147.19 71.16 145.42 72.09 145.76 70.12 144.32 68.72 146.31 68.43 147.19 66.64" style="fill: rgb(219, 219, 219); transform-origin: 147.19px 69.365px;" id="ellb3ki7q19m" class="animable"></polygon><polygon points="319.54 42.29 320.43 44.09 322.41 44.37 320.98 45.77 321.31 47.75 319.54 46.81 317.77 47.75 318.11 45.77 316.67 44.37 318.65 44.09 319.54 42.29" style="fill: rgb(219, 219, 219); transform-origin: 319.54px 45.02px;" id="el4624u51hydh" class="animable"></polygon><polygon points="428.8 170.92 429.69 172.72 431.67 173 430.24 174.4 430.57 176.38 428.8 175.44 427.03 176.38 427.37 174.4 425.93 173 427.92 172.72 428.8 170.92" style="fill: rgb(219, 219, 219); transform-origin: 428.8px 173.65px;" id="elip7xh5xb93" class="animable"></polygon><polygon points="425.01 389.35 425.89 391.15 427.88 391.44 426.44 392.83 426.78 394.81 425.01 393.88 423.23 394.81 423.57 392.83 422.14 391.44 424.12 391.15 425.01 389.35" style="fill: rgb(219, 219, 219); transform-origin: 425.01px 392.08px;" id="elibgwl48mmw" class="animable"></polygon><polygon points="176.84 285.57 177.72 287.37 179.71 287.65 178.27 289.05 178.61 291.03 176.84 290.1 175.06 291.03 175.4 289.05 173.97 287.65 175.95 287.37 176.84 285.57" style="fill: rgb(219, 219, 219); transform-origin: 176.84px 288.3px;" id="eldz93hxsv3t" class="animable"></polygon><polygon points="102.26 207.6 103.15 209.4 105.13 209.69 103.7 211.08 104.04 213.06 102.26 212.13 100.49 213.06 100.83 211.08 99.39 209.69 101.38 209.4 102.26 207.6" style="fill: rgb(219, 219, 219); transform-origin: 102.26px 210.33px;" id="elsn86envgutr" class="animable"></polygon><polygon points="72.61 322.17 73.5 323.96 75.48 324.25 74.05 325.65 74.38 327.63 72.61 326.69 70.84 327.63 71.17 325.65 69.74 324.25 71.72 323.96 72.61 322.17" style="fill: rgb(219, 219, 219); transform-origin: 72.61px 324.9px;" id="eltjpgjouve8r" class="animable"></polygon><polygon points="37.38 150.15 37.93 151.26 39.16 151.43 38.27 152.3 38.48 153.52 37.38 152.94 36.29 153.52 36.5 152.3 35.61 151.43 36.84 151.26 37.38 150.15" style="fill: rgb(219, 219, 219); transform-origin: 37.385px 151.835px;" id="el94kc54lgb8" class="animable"></polygon><polygon points="129.04 147.12 129.59 148.23 130.81 148.41 129.93 149.27 130.13 150.49 129.04 149.92 127.94 150.49 128.15 149.27 127.27 148.41 128.49 148.23 129.04 147.12" style="fill: rgb(219, 219, 219); transform-origin: 129.04px 148.805px;" id="elbuewuus0peg" class="animable"></polygon><polygon points="111.89 217.23 112.44 218.34 113.66 218.52 112.78 219.38 112.99 220.6 111.89 220.02 110.79 220.6 111 219.38 110.12 218.52 111.34 218.34 111.89 217.23" style="fill: rgb(219, 219, 219); transform-origin: 111.89px 218.915px;" id="elwh1tf8uix3" class="animable"></polygon><polygon points="331.01 247.39 331.56 248.5 332.78 248.68 331.9 249.54 332.11 250.76 331.01 250.19 329.91 250.76 330.12 249.54 329.24 248.68 330.46 248.5 331.01 247.39" style="fill: rgb(219, 219, 219); transform-origin: 331.01px 249.075px;" id="ell8w3hr8mj8e" class="animable"></polygon><polygon points="292.64 171.96 293.19 173.07 294.41 173.25 293.52 174.11 293.73 175.33 292.64 174.76 291.54 175.33 291.75 174.11 290.86 173.25 292.09 173.07 292.64 171.96" style="fill: rgb(219, 219, 219); transform-origin: 292.635px 173.645px;" id="elnmrhjzyd2e" class="animable"></polygon><polygon points="462.62 325.64 463.16 326.75 464.39 326.93 463.5 327.8 463.71 329.02 462.62 328.44 461.52 329.02 461.73 327.8 460.84 326.93 462.07 326.75 462.62 325.64" style="fill: rgb(219, 219, 219); transform-origin: 462.615px 327.33px;" id="el13ldbi1767ro" class="animable"></polygon><polygon points="145.42 353.96 145.97 355.07 147.19 355.25 146.31 356.12 146.51 357.33 145.42 356.76 144.32 357.33 144.53 356.12 143.65 355.25 144.87 355.07 145.42 353.96" style="fill: rgb(219, 219, 219); transform-origin: 145.42px 355.645px;" id="elwp08ips544" class="animable"></polygon><polygon points="371.85 370.56 372.39 371.67 373.62 371.84 372.73 372.71 372.94 373.93 371.85 373.35 370.75 373.93 370.96 372.71 370.07 371.84 371.3 371.67 371.85 370.56" style="fill: rgb(219, 219, 219); transform-origin: 371.845px 372.245px;" id="elgynwjjrr3q" class="animable"></polygon><polygon points="338.68 57.62 339.22 58.73 340.45 58.91 339.56 59.77 339.77 60.99 338.68 60.41 337.58 60.99 337.79 59.77 336.9 58.91 338.13 58.73 338.68 57.62" style="fill: rgb(219, 219, 219); transform-origin: 338.675px 59.305px;" id="el7zlpf93o16j" class="animable"></polygon><polygon points="171.3 169.23 171.85 170.34 173.07 170.52 172.19 171.38 172.39 172.6 171.3 172.03 170.2 172.6 170.41 171.38 169.53 170.52 170.75 170.34 171.3 169.23" style="fill: rgb(219, 219, 219); transform-origin: 171.3px 170.915px;" id="elzyj0eq5b0mq" class="animable"></polygon><polygon points="111.89 320.48 112.44 321.59 113.66 321.77 112.78 322.63 112.99 323.85 111.89 323.28 110.79 323.85 111 322.63 110.12 321.77 111.34 321.59 111.89 320.48" style="fill: rgb(219, 219, 219); transform-origin: 111.89px 322.165px;" id="elx1ho5bzsc3" class="animable"></polygon><polygon points="394.93 259.1 395.48 260.21 396.7 260.39 395.81 261.25 396.02 262.47 394.93 261.89 393.83 262.47 394.04 261.25 393.15 260.39 394.38 260.21 394.93 259.1" style="fill: rgb(219, 219, 219); transform-origin: 394.925px 260.785px;" id="elpqdh19zfsz" class="animable"></polygon></g><g id="freepik--Moon--inject-30" class="animable animator-hidden" style="transform-origin: 397.82px 309.76px;"><circle cx="397.82" cy="309.76" r="45.79" style="fill: #BC57C2; transform-origin: 397.82px 309.76px;" id="elja5pu682jbs" class="animable"></circle><g id="elc5pt3t00jyq"><circle cx="397.82" cy="309.76" r="45.79" style="fill: rgb(255, 255, 255); opacity: 0.7; transform-origin: 397.82px 309.76px;" class="animable" id="el8a6bbc2ufp9"></circle></g><g id="elu3sntmniz8"><circle cx="396.37" cy="307.58" r="43.14" style="fill: rgb(255, 255, 255); opacity: 0.5; transform-origin: 396.37px 307.58px;" class="animable" id="el5rv1az5yoy8"></circle></g><g id="el1ts7gtwub4g"><g style="opacity: 0.3; transform-origin: 398.699px 316.243px;" class="animable" id="elucudsli1s8"><path d="M375.34,331.24a4.53,4.53,0,0,1-2.43,2.51,4,4,0,0,1-3.53-.2,4.71,4.71,0,0,1-2.15-2.37,14.79,14.79,0,0,0,2.71.9,3.54,3.54,0,0,0,2.19-.17A4.55,4.55,0,0,0,374,330.5a8.3,8.3,0,0,0,1.29-2.47,4.1,4.1,0,0,1,.1,3.21" style="fill: #BC57C2; transform-origin: 371.45px 331.049px;" id="elcxbzah1q24" class="animable"></path><path d="M368.3,330a2.64,2.64,0,0,1-.29-2.3,3.16,3.16,0,0,1,1.75-1.89,2.86,2.86,0,0,1,2.62.2,3,3,0,0,1,1.37,1.84,14.51,14.51,0,0,0-1.93-.37,2.49,2.49,0,0,0-1.28.17,3.69,3.69,0,0,0-1.14.78A6.85,6.85,0,0,0,368.3,330Z" style="fill: #BC57C2; transform-origin: 370.809px 327.791px;" id="elaa1rxnvqjth" class="animable"></path><path d="M430.15,287.13a4.08,4.08,0,0,1-1,3.07,4.46,4.46,0,0,1-3.12,1.55,4,4,0,0,1-3.27-1.36,4.82,4.82,0,0,1-1.23-2.95,15.35,15.35,0,0,0,2.25,1.75,3.58,3.58,0,0,0,2.13.57,4.62,4.62,0,0,0,2.18-.72A8.19,8.19,0,0,0,430.15,287.13Z" style="fill: #BC57C2; transform-origin: 425.849px 289.444px;" id="el2zuineko90r" class="animable"></path><path d="M423,286.69a2.62,2.62,0,0,1,.5-2.27,3.13,3.13,0,0,1,2.27-1.2,2.86,2.86,0,0,1,2.41,1.06,3,3,0,0,1,.68,2.2,13.37,13.37,0,0,0-1.7-1,2.42,2.42,0,0,0-1.26-.26,3.47,3.47,0,0,0-1.34.35A6.81,6.81,0,0,0,423,286.69Z" style="fill: #BC57C2; transform-origin: 425.898px 284.952px;" id="el30wsutngs34" class="animable"></path><path d="M391.43,322.47a3.06,3.06,0,0,1,1,2.19,3.38,3.38,0,0,1-.93,2.46,3,3,0,0,1-2.5.91,3.56,3.56,0,0,1-2.19-1,10.64,10.64,0,0,0,2.14-.19,2.64,2.64,0,0,0,1.46-.77,3.38,3.38,0,0,0,.84-1.52A6.3,6.3,0,0,0,391.43,322.47Z" style="fill: #BC57C2; transform-origin: 389.621px 325.259px;" id="el9y9pcid753h" class="animable"></path><path d="M387.23,325.9a2,2,0,0,1-.89-1.5,2.32,2.32,0,0,1,.65-1.82,2.11,2.11,0,0,1,1.87-.65,2.2,2.2,0,0,1,1.49.86,10.55,10.55,0,0,0-1.44.32,1.78,1.78,0,0,0-.83.5,2.61,2.61,0,0,0-.56.88A5.27,5.27,0,0,0,387.23,325.9Z" style="fill: #BC57C2; transform-origin: 388.341px 323.903px;" id="elacxac2wmk76" class="animable"></path><path d="M418.54,307.06a9.15,9.15,0,0,1,5.22,6.46,10.1,10.1,0,1,0-17.66,4.9,9.21,9.21,0,0,1,12.44-11.36Z" style="fill: #BC57C2; transform-origin: 413.794px 310.099px;" id="eloagajg1mvne" class="animable"></path><path d="M427.79,313.54a13,13,0,0,1-2.24,7.56,15.41,15.41,0,0,1-6.1,5.33,11.14,11.14,0,0,1-8.15.74,12,12,0,0,1-6.37-4.68,16.08,16.08,0,0,0,6.74,3.16,15.36,15.36,0,0,0,1.78.19,9.43,9.43,0,0,0,1.76-.14,11.32,11.32,0,0,0,3.37-1.07c.53-.27,1.08-.56,1.6-.87s1-.66,1.49-1.05a16.13,16.13,0,0,0,2.63-2.53A18.45,18.45,0,0,0,427.79,313.54Z" style="fill: #BC57C2; transform-origin: 416.361px 320.581px;" id="eleifz67pn3xf" class="animable"></path><path d="M375.69,284.91a3.43,3.43,0,0,1,2.37,2,3.77,3.77,0,1,0-6.12,3,3.44,3.44,0,0,1,3.75-5Z" style="fill: #BC57C2; transform-origin: 374.29px 286.551px;" id="elo6sc4v6qump" class="animable"></path><path d="M379.53,286.62a4.64,4.64,0,0,1-.19,3,5.65,5.65,0,0,1-1.86,2.44,4.17,4.17,0,0,1-3,.85,4.31,4.31,0,0,1-2.66-1.36,6.33,6.33,0,0,0,2.7.58,4.07,4.07,0,0,0,2.37-.87A6.77,6.77,0,0,0,379.53,286.62Z" style="fill: #BC57C2; transform-origin: 375.757px 289.777px;" id="el0s3ffg5iyzj" class="animable"></path><path d="M390.4,338a4.85,4.85,0,0,1,3.81,2.21A5.35,5.35,0,1,0,386.4,346a4.79,4.79,0,0,1-1.11-3.37A4.87,4.87,0,0,1,390.4,338Z" style="fill: #BC57C2; transform-origin: 388.917px 340.98px;" id="elxz3ipee1nff" class="animable"></path><path d="M396.21,339.43a7,7,0,0,1,.3,4.16,8.13,8.13,0,0,1-2,3.78,5.87,5.87,0,0,1-3.87,1.91,6.44,6.44,0,0,1-4-1.08,8.46,8.46,0,0,0,3.94.31,5.83,5.83,0,0,0,3.24-1.82,9.07,9.07,0,0,0,2-3.3A9.54,9.54,0,0,0,396.21,339.43Z" style="fill: #BC57C2; transform-origin: 391.668px 344.362px;" id="elongpwipg1g" class="animable"></path></g></g></g><g id="freepik--Trees--inject-30" class="animable" style="transform-origin: 250px 370.82px;"><path d="M36.53,451.43H92.09l-6.51-28.69a36.86,36.86,0,0,1-17.74-5.54l17.21,3.2-7.94-35.06a32.22,32.22,0,0,1-7.07-4.5l6.51,2.06-1-4.67a33.89,33.89,0,0,1-9.8-6.48l9.13,3.56L64.32,328.9l-5.95,26.23,5.34-1.33A39.09,39.09,0,0,1,58,357l-8.53,37.57L55.61,393a41.08,41.08,0,0,1-6.65,3.6l-5.9,26,12.07-3a44.33,44.33,0,0,1-12.69,5.74l-1,4.53L60,425.27a44.07,44.07,0,0,1-19.07,7l-1.47,6.49,6.17-1.54a41.21,41.21,0,0,1-6.64,3.6Z" style="fill: rgb(69, 90, 100); transform-origin: 64.31px 390.165px;" id="el8nb8xk0e2rq" class="animable"></path><path d="M46.75,414.31c3.08,1.17,14.46,5.81,16.92,7.16v-1.56c-2.74-1.61-5.5-3.21-8.25-4.81a97.49,97.49,0,0,1-8.88-5.28c-.14-.1-.06-.38.12-.3a72.82,72.82,0,0,1,8.69,4.8c2.8,1.64,5.57,3.33,8.33,5,0-4,0-7.93,0-11.89a93.46,93.46,0,0,1-13-6.59c-.15-.08,0-.35.11-.28a95.89,95.89,0,0,1,12.86,6.34c0-2.06-.06-17.92.45-38-2.7-1.36-5.48-2.56-8.18-3.93-.17-.09,0-.4.14-.32,2.74,1.06,5.37,2.33,8.06,3.51.15-5.47.35-10.94.69-16.4a.14.14,0,0,1,.28,0c.38,10.15.35,29.81.22,40,2.79-2.23,5.78-4.21,8.62-6.37.11-.09.22.1.11.18-3,2.27-5.76,4.77-8.74,7,0,.58,0,1.15,0,1.72,3-1.38,6.1-2.67,9.17-4,.24-.11.45.24.21.36-3.12,1.49-6.23,3-9.39,4.43-.08,5-.54,23.21-.72,32q8.58-4.33,17.29-8.44a.19.19,0,0,1,.19.33,181.05,181.05,0,0,1-17.5,8.79c-.15,7.3-.3,16-.4,23.27a.35.35,0,0,1-.69,0c.11-9.32.12-20,.15-29.31-3-.74-14.42-5.63-17.13-7C46.26,414.68,46.46,414.2,46.75,414.31Z" style="fill: rgb(55, 71, 79); transform-origin: 64.2653px 401.471px;" id="elhmrr8zqi1va" class="animable"></path><path d="M373.57,451.43h55.55l-6.5-28.69a36.89,36.89,0,0,1-17.75-5.54l17.22,3.2-7.94-35.06a32,32,0,0,1-7.07-4.5l6.51,2.06-1.06-4.67a34,34,0,0,1-9.79-6.48l9.13,3.56L401.35,328.9l-5.94,26.23,5.34-1.33A39.78,39.78,0,0,1,395,357l-8.53,37.57,6.19-1.54a41.08,41.08,0,0,1-6.65,3.6l-5.91,26,12.07-3a44.16,44.16,0,0,1-12.69,5.74l-1,4.53L397,425.27a44.07,44.07,0,0,1-19.07,7l-1.47,6.49,6.17-1.54a40.65,40.65,0,0,1-6.64,3.6Z" style="fill: rgb(69, 90, 100); transform-origin: 401.345px 390.165px;" id="elrmuxpu8aqpc" class="animable"></path><path d="M383.79,414.31c3.07,1.17,14.45,5.81,16.91,7.16,0-.52,0-1,0-1.56l-8.25-4.81a99,99,0,0,1-8.89-5.28c-.13-.1-.06-.38.13-.3a73.6,73.6,0,0,1,8.69,4.8c2.8,1.64,5.56,3.33,8.32,5q0-6,.05-11.89a94.59,94.59,0,0,1-13-6.59c-.14-.08-.05-.35.12-.28a95.89,95.89,0,0,1,12.86,6.34c0-2.06-.07-17.92.44-38-2.69-1.36-5.47-2.56-8.17-3.93-.18-.09-.05-.4.14-.32,2.73,1.06,5.37,2.33,8.06,3.51.14-5.47.35-10.94.68-16.4a.15.15,0,0,1,.29,0c.37,10.15.34,29.81.22,40,2.79-2.23,5.77-4.21,8.62-6.37.11-.09.21.1.11.18-3,2.27-5.76,4.77-8.75,7,0,.58,0,1.15,0,1.72,3-1.38,6.11-2.67,9.17-4,.24-.11.46.24.21.36-3.12,1.49-6.23,3-9.39,4.43-.07,5-.53,23.21-.72,32q8.58-4.33,17.3-8.44a.19.19,0,0,1,.19.33,181.05,181.05,0,0,1-17.5,8.79c-.16,7.3-.31,16-.4,23.27a.35.35,0,0,1-.69,0c.1-9.32.12-20,.14-29.31-3-.74-14.42-5.63-17.12-7C383.3,414.68,383.5,414.2,383.79,414.31Z" style="fill: rgb(55, 71, 79); transform-origin: 401.332px 401.485px;" id="el0hr9av3u8plo" class="animable"></path><path d="M174,451.43h55.55L223,422.74a36.86,36.86,0,0,1-17.75-5.54l17.22,3.2-8-35.06a32.22,32.22,0,0,1-7.07-4.5L214,382.9l-1-4.67a34.16,34.16,0,0,1-9.8-6.48l9.14,3.56L201.75,328.9l-5.94,26.23,5.33-1.33a39.09,39.09,0,0,1-5.76,3.19l-8.52,37.57L193,393a40.65,40.65,0,0,1-6.64,3.6l-5.91,26,12.07-3a44.16,44.16,0,0,1-12.69,5.74l-1,4.53,18.54-4.63a44.07,44.07,0,0,1-19.07,7l-1.47,6.49,6.17-1.54a41.21,41.21,0,0,1-6.64,3.6Z" style="fill: rgb(69, 90, 100); transform-origin: 201.775px 390.165px;" id="el3ouu68de30e" class="animable"></path><path d="M184.19,414.31c3.07,1.17,14.45,5.81,16.91,7.16,0-.52,0-1,0-1.56l-8.26-4.81a98.87,98.87,0,0,1-8.88-5.28c-.14-.1-.06-.38.13-.3a74.41,74.41,0,0,1,8.69,4.8c2.79,1.64,5.56,3.33,8.32,5,0-4,0-7.93,0-11.89a94,94,0,0,1-13-6.59c-.14-.08-.05-.35.12-.28a96.36,96.36,0,0,1,12.85,6.34c0-2.06-.06-17.92.45-38-2.7-1.36-5.48-2.56-8.17-3.93-.18-.09-.06-.4.13-.32,2.74,1.06,5.38,2.33,8.06,3.51.15-5.47.36-10.94.69-16.4a.14.14,0,0,1,.28,0c.38,10.15.35,29.81.22,40,2.8-2.23,5.78-4.21,8.62-6.37.11-.09.22.1.11.18-3,2.27-5.75,4.77-8.74,7,0,.58,0,1.15,0,1.72,3-1.38,6.11-2.67,9.17-4,.24-.11.45.24.21.36-3.12,1.49-6.23,3-9.39,4.43-.07,5-.53,23.21-.72,32q8.58-4.33,17.29-8.44c.22-.11.42.2.2.33a182.21,182.21,0,0,1-17.5,8.79c-.16,7.3-.31,16-.4,23.27a.35.35,0,0,1-.69,0c.1-9.32.11-20,.14-29.31-3-.74-14.42-5.63-17.13-7C183.7,414.68,183.89,414.2,184.19,414.31Z" style="fill: rgb(55, 71, 79); transform-origin: 201.696px 401.471px;" id="el0yrx21ox4fri" class="animable"></path><path d="M372.39,451.43H312.56l2.92-15.74c12.54-.81,22.31-9.31,22.31-9.31L316,433l8-43.39a43.38,43.38,0,0,0,9.08-5.7l-8.51,2.59,1.32-7.07a44.29,44.29,0,0,0,12.88-7.29l-12.22,3.72,7.63-41.09a38.56,38.56,0,0,0,4.61-3.28l-4.24,1.29,7.91-42.64,11.33,61.1L344,346.56a36.67,36.67,0,0,0,10.55,8.53h0l10.67,57.54-16.55-6.39a36.28,36.28,0,0,0,17.19,9.82l1.1,5.88-8.91-2a33.1,33.1,0,0,0,9.51,5.28Z" style="fill: rgb(55, 71, 79); transform-origin: 342.475px 370.785px;" id="el4eexyno0j8x" class="animable"></path><path d="M362.39,399c-3.58,1.37-16.3,6.52-19.17,8.09v-1.81c3.19-1.88,6.4-3.74,9.61-5.61,3.44-2,5.73-2.72,8.94-5.08.15-.11.07-.43-.15-.34a60.92,60.92,0,0,0-8.71,4.52c-3.26,1.91-6.48,3.88-9.7,5.86q0-6.92,0-13.84a109.84,109.84,0,0,0,15.1-7.68c.17-.09.06-.4-.13-.32a111.88,111.88,0,0,0-15,7.38c0-2.4,0-4.79,0-7.19-.13-12.36-.16-24.72-.47-37.08,3.14-1.58,6.38-3,9.52-4.57.21-.11.06-.47-.16-.38-3.19,1.24-6.26,2.72-9.39,4.09-.17-6.37-.41-12.74-.8-19.1a.17.17,0,0,0-.33,0c-.44,11.83-.4,23.67-.25,35.51-3.26-2.59-6.73-4.89-10-7.41-.13-.1-.26.12-.13.21,3.46,2.64,6.71,5.56,10.18,8.19l0,2c-3.54-1.61-7.12-3.11-10.68-4.64-.28-.12-.53.28-.25.42,3.64,1.74,7.26,3.52,10.94,5.16.08,5.87.18,11.73.26,17.6.13,10.24.36,20.48.58,30.72q-10-5.06-20.14-9.84c-.26-.12-.49.25-.23.39a209.74,209.74,0,0,0,20.38,10.24c.18,8.51.36,28,.47,36.56a.4.4,0,0,0,.8,0c-.12-10.86-.14-32.74-.16-43.59,3.51-.87,16.25-6.31,19.41-7.86C363,399.43,362.73,398.86,362.39,399Z" style="fill: rgb(69, 90, 100); transform-origin: 342.278px 388.63px;" id="eliu0k735k3u" class="animable"></path><path d="M463.47,451.43H419.81l5.11-22.55a29,29,0,0,0,13.94-4.35L425.33,427l6.24-27.55a25.14,25.14,0,0,0,5.56-3.54L432,397.57l.82-3.68a26.33,26.33,0,0,0,7.7-5.09l-7.17,2.8,8.26-36.47,4.67,20.61-4.19-1.05a29.57,29.57,0,0,0,4.52,2.51l6.7,29.54-4.86-1.22a32,32,0,0,0,5.23,2.83l4.64,20.45-9.49-2.36a34.91,34.91,0,0,0,10,4.51l.8,3.55-14.57-3.63a34.66,34.66,0,0,0,15,5.46l1.15,5.1-4.85-1.21a31.56,31.56,0,0,0,5.22,2.83Z" style="fill: rgb(55, 71, 79); transform-origin: 441.64px 403.28px;" id="el81cz3dywtel" class="animable"></path><path d="M455.43,422.25c-2.41.93-11.36,4.57-13.29,5.63v-1.22c2.15-1.27,4.32-2.53,6.48-3.79a74.31,74.31,0,0,0,7-4.15c.1-.07,0-.29-.1-.23a57.45,57.45,0,0,0-6.83,3.77c-2.2,1.29-4.38,2.62-6.55,4,0-3.11,0-6.23,0-9.34a74,74,0,0,0,10.2-5.18c.11-.07,0-.27-.09-.22a75.82,75.82,0,0,0-10.11,5c0-1.62.05-14.08-.35-29.87,2.12-1.07,4.3-2,6.42-3.09.14-.07,0-.31-.1-.26-2.15.84-4.23,1.84-6.34,2.77-.11-4.3-.28-8.6-.54-12.9a.11.11,0,0,0-.22,0c-.3,8-.27,23.44-.17,31.43-2.2-1.76-4.54-3.31-6.78-5-.09-.06-.17.08-.08.15,2.33,1.78,4.52,3.75,6.87,5.52,0,.45,0,.9,0,1.35-2.38-1.08-4.8-2.1-7.2-3.13-.19-.08-.36.19-.17.28,2.45,1.18,4.9,2.38,7.38,3.49.06,4,.42,18.24.57,25.15q-6.75-3.42-13.59-6.64c-.18-.08-.33.16-.16.26a141.48,141.48,0,0,0,13.76,6.91c.12,5.74.24,12.55.31,18.29a.27.27,0,0,0,.54,0c-.08-7.32-.09-15.71-.11-23a136.39,136.39,0,0,0,13.46-5.48C455.82,422.54,455.67,422.16,455.43,422.25Z" style="fill: rgb(69, 90, 100); transform-origin: 441.663px 412.28px;" id="el65o1c3f8orb" class="animable"></path><path d="M122,451.43H62.21l2.92-15.74c12.54-.81,22.31-9.31,22.31-9.31L65.63,433l8.05-43.39a43.38,43.38,0,0,0,9.08-5.7l-8.51,2.59,1.31-7.07a44.26,44.26,0,0,0,12.89-7.29l-12.22,3.72,7.62-41.09a39.32,39.32,0,0,0,4.62-3.28l-4.25,1.29,7.91-42.64,11.33,61.1-9.84-4.71a36.53,36.53,0,0,0,10.55,8.53h0l10.67,57.54-16.55-6.39a36.28,36.28,0,0,0,17.19,9.82l1.1,5.88-8.91-2a33.19,33.19,0,0,0,9.5,5.28Z" style="fill: rgb(55, 71, 79); transform-origin: 92.105px 370.785px;" id="elqp6tqgmgcn" class="animable"></path><path d="M112,399c-3.58,1.37-16.31,6.52-19.17,8.09,0-.6,0-1.2,0-1.81,3.2-1.88,6.41-3.74,9.62-5.61,3.44-2,5.73-2.72,8.93-5.08.16-.11.07-.43-.14-.34a60.4,60.4,0,0,0-8.71,4.52c-3.26,1.91-6.49,3.88-9.7,5.86q0-6.92-.06-13.84a109.39,109.39,0,0,0,15.11-7.68c.16-.09,0-.4-.14-.32a111.17,111.17,0,0,0-15,7.38c0-2.4,0-4.79,0-7.19-.13-12.36-.16-24.72-.47-37.08,3.14-1.58,6.38-3,9.52-4.57.2-.11.06-.47-.16-.38-3.19,1.24-6.26,2.72-9.39,4.09-.17-6.37-.41-12.74-.8-19.1a.17.17,0,0,0-.33,0c-.44,11.83-.4,23.67-.25,35.51-3.26-2.59-6.73-4.89-10.05-7.41-.12-.1-.25.12-.12.21,3.46,2.64,6.7,5.56,10.18,8.19,0,.67,0,1.33,0,2-3.53-1.61-7.11-3.11-10.68-4.64-.28-.12-.53.28-.24.42,3.63,1.74,7.26,3.52,10.94,5.16.08,5.87.18,11.73.26,17.6.13,10.24.35,20.48.57,30.72q-10-5.06-20.14-9.84c-.25-.12-.48.25-.22.39a209.74,209.74,0,0,0,20.38,10.24c.18,8.51.36,28,.47,36.56a.4.4,0,0,0,.8,0c-.12-10.86-.14-32.74-.17-43.59,3.52-.87,16.26-6.31,19.42-7.86C112.61,399.43,112.38,398.86,112,399Z" style="fill: rgb(69, 90, 100); transform-origin: 91.8391px 388.63px;" id="elc3m6wi9xf8" class="animable"></path><path d="M159.19,451.43H115.52l5.11-22.55a29,29,0,0,0,14-4.35L121.05,427l6.24-27.55a25.14,25.14,0,0,0,5.56-3.54l-5.12,1.62.83-3.68a26.33,26.33,0,0,0,7.7-5.09l-7.18,2.8,8.27-36.47L142,375.74l-4.2-1.05a30.05,30.05,0,0,0,4.53,2.51l6.7,29.54-4.86-1.22a31.44,31.44,0,0,0,5.23,2.83l4.64,20.45-9.49-2.36a34.91,34.91,0,0,0,10,4.51l.8,3.55-14.57-3.63a34.65,34.65,0,0,0,15,5.46l1.16,5.1-4.85-1.21a31.56,31.56,0,0,0,5.22,2.83Z" style="fill: rgb(69, 90, 100); transform-origin: 137.355px 403.26px;" id="el0wj2qhc1e5g" class="animable"></path><path d="M151.15,422.25c-2.41.93-11.36,4.57-13.29,5.63,0-.41,0-.81,0-1.22l6.49-3.79a74.15,74.15,0,0,0,7-4.15c.11-.07.05-.29-.1-.23a59.06,59.06,0,0,0-6.83,3.77c-2.19,1.29-4.37,2.62-6.54,4,0-3.11,0-6.23,0-9.34A74,74,0,0,0,148,411.7c.11-.07,0-.27-.09-.22a75.23,75.23,0,0,0-10.11,5c0-1.62.05-14.08-.35-29.87,2.12-1.07,4.3-2,6.42-3.09.14-.07,0-.31-.1-.26-2.16.84-4.23,1.84-6.34,2.77-.11-4.3-.28-8.6-.54-12.9a.11.11,0,0,0-.22,0c-.3,8-.27,23.44-.17,31.43-2.2-1.76-4.54-3.31-6.78-5-.09-.06-.17.08-.09.15,2.34,1.78,4.53,3.75,6.87,5.52,0,.45,0,.9,0,1.35-2.38-1.08-4.8-2.1-7.21-3.13-.19-.08-.35.19-.16.28,2.45,1.18,4.9,2.38,7.38,3.49.06,4,.42,18.24.56,25.15q-6.73-3.42-13.59-6.64c-.17-.08-.32.16-.15.26a141.48,141.48,0,0,0,13.76,6.91c.12,5.74.24,12.55.31,18.29a.27.27,0,0,0,.54,0c-.08-7.32-.09-15.71-.11-23a136.39,136.39,0,0,0,13.46-5.48C151.54,422.54,151.38,422.16,151.15,422.25Z" style="fill: rgb(55, 71, 79); transform-origin: 137.336px 412.239px;" id="elcrekj7c2t3" class="animable"></path><path d="M327.68,451.43H284l5.11-22.55a29.07,29.07,0,0,0,13.95-4.35L289.55,427l6.24-27.55a25.37,25.37,0,0,0,5.56-3.54l-5.12,1.62.83-3.68a26.46,26.46,0,0,0,7.7-5.09l-7.18,2.8,8.26-36.47,4.68,20.61-4.2-1.05a30.05,30.05,0,0,0,4.53,2.51l6.7,29.54-4.86-1.22a31.56,31.56,0,0,0,5.22,2.83l4.64,20.45-9.48-2.36A34.77,34.77,0,0,0,323,431l.8,3.55-14.57-3.63a34.72,34.72,0,0,0,15,5.46l1.16,5.1-4.85-1.21a31.69,31.69,0,0,0,5.21,2.83Z" style="fill: rgb(55, 71, 79); transform-origin: 305.84px 403.26px;" id="elttstwu1c0yi" class="animable"></path><path d="M319.65,422.25c-2.42.93-11.36,4.57-13.29,5.63,0-.41,0-.81,0-1.22l6.49-3.79a75.45,75.45,0,0,0,7-4.15c.11-.07.05-.29-.1-.23a58.24,58.24,0,0,0-6.83,3.77c-2.2,1.29-4.37,2.62-6.54,4,0-3.11,0-6.23,0-9.34a73.32,73.32,0,0,0,10.19-5.18c.11-.07,0-.27-.09-.22a75.11,75.11,0,0,0-10.1,5c0-1.62.05-14.08-.36-29.87,2.12-1.07,4.31-2,6.43-3.09a.14.14,0,0,0-.11-.26c-2.15.84-4.22,1.84-6.33,2.77-.12-4.3-.28-8.6-.54-12.9a.12.12,0,0,0-.23,0c-.29,8-.27,23.44-.17,31.43-2.2-1.76-4.54-3.31-6.77-5-.09-.06-.18.08-.09.15,2.34,1.78,4.53,3.75,6.87,5.52,0,.45,0,.9,0,1.35-2.39-1.08-4.8-2.1-7.21-3.13-.19-.08-.36.19-.17.28,2.46,1.18,4.9,2.38,7.39,3.49,0,4,.41,18.24.56,25.15q-6.75-3.42-13.59-6.64c-.17-.08-.33.16-.15.26a140.19,140.19,0,0,0,13.75,6.91c.12,5.74.24,12.55.32,18.29a.27.27,0,0,0,.54,0c-.08-7.32-.09-15.71-.11-23a136.39,136.39,0,0,0,13.46-5.48C320,422.54,319.88,422.16,319.65,422.25Z" style="fill: rgb(69, 90, 100); transform-origin: 305.877px 412.292px;" id="el25ekuh508uq" class="animable"></path></g><g id="freepik--Spaceship--inject-30" class="animable" style="transform-origin: 250px 244.934px;"><path d="M319.44,89.13c0,27-32.94,48.89-69.42,48.92s-69.47-21.82-69.49-48.81,32.93-50.59,69.41-50.62S319.41,62.14,319.44,89.13Z" style="fill: #BC57C2; transform-origin: 249.985px 88.335px;" id="ellzfiigarjz" class="animable"></path><g id="el1vik0gpvd41"><path d="M319.44,89.13c0,27-32.94,48.89-69.42,48.92s-69.47-21.82-69.49-48.81,32.93-50.59,69.41-50.62S319.41,62.14,319.44,89.13Z" style="fill: rgb(255, 255, 255); opacity: 0.8; transform-origin: 249.985px 88.335px;" class="animable" id="elvod54mqs4tc"></path></g><path d="M319.44,89.13a36.88,36.88,0,0,1-7.55,21.79,59.29,59.29,0,0,1-17.48,15.44,88.11,88.11,0,0,1-44.88,11.86c-15.63-.08-31.39-4-44.85-12.13a58.16,58.16,0,0,1-17.37-15.69c-4.53-6.4-7.42-14.19-7.12-22.14a35.73,35.73,0,0,1,2.33-11.56,44.55,44.55,0,0,1,5.72-10.3,61.87,61.87,0,0,1,17.41-15.66,85.42,85.42,0,0,1,89.32.61A60.86,60.86,0,0,1,312,67.25,38.34,38.34,0,0,1,319.44,89.13Zm0,0A38.33,38.33,0,0,0,312,67.3a61,61,0,0,0-17.09-15.8A85.09,85.09,0,0,0,206,51.22a61.43,61.43,0,0,0-17.18,15.57A43.57,43.57,0,0,0,183.18,77a35.22,35.22,0,0,0-2.24,11.33c-.33,7.77,2.46,15.42,6.9,21.74A57.64,57.64,0,0,0,205,125.61c13.32,8.14,29,12.09,44.57,12.24a87.82,87.82,0,0,0,44.77-11.65,59,59,0,0,0,17.5-15.33A36.81,36.81,0,0,0,319.44,89.13Z" style="fill: rgb(38, 50, 56); transform-origin: 249.804px 88.3304px;" id="elr6ajnt05z2l" class="animable"></path><g id="elv8h5w6oon3a"><ellipse cx="271.19" cy="53.03" rx="9.15" ry="15.07" style="fill: rgb(255, 255, 255); transform-origin: 271.19px 53.03px; transform: rotate(-77.92deg);" class="animable" id="elq0is1urq4n"></ellipse></g><path d="M299,67.33c-1.37,1.9-4.53,2-7.06.17s-3.47-4.82-2.1-6.72,4.53-2,7.06-.17S300.36,65.43,299,67.33Z" style="fill: rgb(255, 255, 255); transform-origin: 294.418px 64.055px;" id="el458w5rz1tx5" class="animable"></path><ellipse cx="250" cy="111.53" rx="186.02" ry="36.29" style="fill: #BC57C2; transform-origin: 250px 111.53px;" id="el7jjtixn3z1j" class="animable"></ellipse><g id="elm2se3t8rj6f"><ellipse cx="250" cy="111.53" rx="186.02" ry="36.29" style="opacity: 0.3; transform-origin: 250px 111.53px;" class="animable" id="elyjmnkz7wte9"></ellipse></g><ellipse cx="250" cy="113.74" rx="186.02" ry="36.29" style="fill: #BC57C2; transform-origin: 250px 113.74px;" id="elueev0tq4j8" class="animable"></ellipse><g id="elqyx1ewu7awe"><g style="opacity: 0.4; transform-origin: 250.69px 113.885px;" class="animable" id="eljuw04gipnb"><path d="M162.53,90.45c6.13,1.08,11.05,2.27,15.68,3.49a83,83,0,0,1,11.72,3.85c-6.13-1.08-11.05-2.27-15.68-3.49A84.35,84.35,0,0,1,162.53,90.45Z" style="fill: rgb(255, 255, 255); transform-origin: 176.23px 94.12px;" id="el66loudno6i" class="animable"></path><path d="M99,100.47c8.82.46,16.93,1.11,24.87,1.8s15.59,1.46,22.59,2.41c-8.82-.46-16.93-1.1-24.87-1.8S106,101.41,99,100.47Z" style="fill: rgb(255, 255, 255); transform-origin: 122.73px 102.575px;" id="el8il22q5ltna" class="animable"></path><path d="M76.17,114.05c9.13-.29,18.26-.36,27.4-.38s18.26.06,27.39.33c-9.13.29-18.26.36-27.39.38S85.3,114.32,76.17,114.05Z" style="fill: rgb(255, 255, 255); transform-origin: 103.565px 114.025px;" id="el2s2x3f6gf4" class="animable"></path><path d="M100.07,127.54c7-1,14.71-1.72,22.58-2.45s16-1.37,24.87-1.84c-7,1-14.71,1.73-22.58,2.45S108.88,127.07,100.07,127.54Z" style="fill: rgb(255, 255, 255); transform-origin: 123.795px 125.395px;" id="el3esqxvqa0tv" class="animable"></path><path d="M164.33,137.34A85.3,85.3,0,0,1,176,133.47c4.63-1.22,9.54-2.42,15.68-3.51A82.92,82.92,0,0,1,180,133.82C175.37,135.05,170.46,136.25,164.33,137.34Z" style="fill: rgb(255, 255, 255); transform-origin: 178.005px 133.65px;" id="elgjgx43n1zqc" class="animable"></path><path d="M249.7,145.1a38.9,38.9,0,0,1,0-16.5,38.9,38.9,0,0,1,0,16.5Z" style="fill: rgb(255, 255, 255); transform-origin: 249.7px 136.85px;" id="el47st6f7hbvl" class="animable"></path><path d="M249.66,99.17a35.1,35.1,0,0,1-.89-8.25,34.56,34.56,0,0,1,.88-8.25,34.07,34.07,0,0,1,.89,8.25A34.56,34.56,0,0,1,249.66,99.17Z" style="fill: rgb(255, 255, 255); transform-origin: 249.655px 90.92px;" id="ela0s67b17fw4" class="animable"></path><path d="M338.85,137c-6.13-1.09-11.05-2.28-15.68-3.49a84.34,84.34,0,0,1-11.72-3.85c6.14,1.08,11.05,2.27,15.68,3.49A83.9,83.9,0,0,1,338.85,137Z" style="fill: rgb(255, 255, 255); transform-origin: 325.15px 133.33px;" id="elwfmfp0oxpa" class="animable"></path><path d="M402.35,127c-8.81-.46-16.92-1.11-24.87-1.8s-15.58-1.47-22.58-2.41c8.81.45,16.92,1.1,24.87,1.79S395.34,126.07,402.35,127Z" style="fill: rgb(255, 255, 255); transform-origin: 378.625px 124.895px;" id="elrnu9q7hj75e" class="animable"></path><path d="M425.21,113.44c-9.13.29-18.26.36-27.39.38s-18.27-.06-27.4-.33c9.13-.29,18.26-.36,27.4-.38S416.08,113.17,425.21,113.44Z" style="fill: rgb(255, 255, 255); transform-origin: 397.815px 113.465px;" id="ellcjny4kge6n" class="animable"></path><path d="M401.31,100c-7,1-14.71,1.72-22.58,2.45s-16.05,1.36-24.87,1.84c7-1,14.71-1.73,22.58-2.45S392.5,100.42,401.31,100Z" style="fill: rgb(255, 255, 255); transform-origin: 377.585px 102.145px;" id="el951xlopgfrw" class="animable"></path><path d="M337.05,90.15A84.85,84.85,0,0,1,325.34,94c-4.62,1.22-9.54,2.42-15.68,3.51a84.57,84.57,0,0,1,11.72-3.87C326,92.44,330.93,91.24,337.05,90.15Z" style="fill: rgb(255, 255, 255); transform-origin: 323.355px 93.83px;" id="el8b69amtxw5q" class="animable"></path></g></g><path d="M432.74,109.16a1.59,1.59,0,1,1,1.88-1.56A1.74,1.74,0,0,1,432.74,109.16Z" style="fill: #BC57C2; transform-origin: 433.03px 107.587px;" id="els363loieal" class="animable"></path><path d="M67.25,109.47a1.59,1.59,0,1,1,1.89-1.57A1.74,1.74,0,0,1,67.25,109.47Z" style="fill: #BC57C2; transform-origin: 67.55px 107.898px;" id="elqm69ub7x90g" class="animable"></path><path d="M96.62,94.27a1.59,1.59,0,1,1,0-3.12,1.59,1.59,0,1,1,0,3.12Z" style="fill: #BC57C2; transform-origin: 96.62px 92.71px;" id="elh7mjxc8kayw" class="animable"></path><path d="M160.59,82.73a1.59,1.59,0,1,1,1.88-1.57A1.75,1.75,0,0,1,160.59,82.73Z" style="fill: #BC57C2; transform-origin: 160.88px 81.1561px;" id="elr6hjorg55yl" class="animable"></path><path d="M248.41,78.37a1.59,1.59,0,1,1,1.88-1.57A1.75,1.75,0,0,1,248.41,78.37Z" style="fill: #BC57C2; transform-origin: 248.7px 76.7961px;" id="el8f8lr4s2nl4" class="animable"></path><path d="M336.9,82.36a1.59,1.59,0,1,1,1.89-1.57A1.74,1.74,0,0,1,336.9,82.36Z" style="fill: #BC57C2; transform-origin: 337.2px 80.7879px;" id="el12u7db7lk9x" class="animable"></path><path d="M401.57,93.63a1.59,1.59,0,1,1,1.88-1.56A1.75,1.75,0,0,1,401.57,93.63Z" style="fill: #BC57C2; transform-origin: 401.86px 92.0561px;" id="el4skegwc2byo" class="animable"></path><g id="ellynybdyumi8"><path d="M260.25,77.5,250,122.78,239.79,77.51q5.06-.06,10.18-.06C253.42,77.45,256.85,77.46,260.25,77.5Z" style="fill: rgb(255, 255, 255); opacity: 0.2; transform-origin: 250.02px 100.115px;" class="animable" id="elcy0kf0ihlx4"></path></g><g id="eld6u4pcncphu"><path d="M250,122.78,167.36,81.29c11.26-1.11,23.17-2,35.58-2.63Z" style="fill: rgb(255, 255, 255); opacity: 0.2; transform-origin: 208.68px 100.72px;" class="animable" id="els5g7epcc0dg"></path></g><g id="elz84z4brvv2j"><path d="M250,122.78,109.63,137.66C81.2,131.31,64,123,64,113.89c0-3.51,2.56-6.91,7.34-10.13Z" style="fill: rgb(255, 255, 255); opacity: 0.2; transform-origin: 157px 120.71px;" class="animable" id="elb0eom098zro"></path></g><g id="elwy1nqkn7v5"><path d="M250,122.78l-28.66,26.84c-7.82-.23-15.48-.55-22.94-1Z" style="fill: rgb(255, 255, 255); opacity: 0.2; transform-origin: 224.2px 136.2px;" class="animable" id="elthhav4z21q"></path></g><g id="eltgu1lpxs7ob"><path d="M256.14,150c-2,0-4.06,0-6.11,0s-4.13,0-6.19,0L250,122.78Z" style="fill: rgb(255, 255, 255); opacity: 0.2; transform-origin: 249.99px 136.39px;" class="animable" id="elhlvl4tg3wl9"></path></g><g id="elmdj26zixg6t"><path d="M301.39,148.58q-11.13.63-22.8,1L250,122.78Z" style="fill: rgb(255, 255, 255); opacity: 0.2; transform-origin: 275.695px 136.18px;" class="animable" id="el4an5l2rvmxh"></path></g><g id="elp16walvb1m"><path d="M436,113.58c0,9.21-17.55,17.63-46.5,24L250,122.78l179.14-19C433.62,106.9,436,110.18,436,113.58Z" style="fill: rgb(255, 255, 255); opacity: 0.2; transform-origin: 343px 120.68px;" class="animable" id="elxjdfk8rchkb"></path></g><g id="elhrw2m11yeae"><path d="M332.94,81.19,250,122.78l47.18-44.19h0C309.66,79.22,321.63,80.09,332.94,81.19Z" style="fill: rgb(255, 255, 255); opacity: 0.2; transform-origin: 291.47px 100.685px;" class="animable" id="el3wze9gqow0e"></path></g><path d="M362.82,132.36a5.49,5.49,0,0,1-.92,2.95l-.58.84-7.83,11.28-206.92.17-7.93-11.37-.51-.72v0a5.59,5.59,0,0,1-.91-2.94c0-12.83,50.48-23.25,112.78-23.3S362.8,119.54,362.82,132.36Z" style="fill: #BC57C2; transform-origin: 250.02px 128.435px;" id="elfkp9pyg9hhf" class="animable"></path><g id="ell7rcwxfmuxr"><path d="M362.82,132.36a5.49,5.49,0,0,1-.92,2.95l-.58.84-7.83,11.28-206.92.17-7.93-11.37-.51-.72v0a5.59,5.59,0,0,1-.91-2.94c0-12.83,50.48-23.25,112.78-23.3S362.8,119.54,362.82,132.36Z" style="opacity: 0.1; transform-origin: 250.02px 128.435px;" class="animable" id="elpibedomry7m"></path></g><ellipse cx="250.03" cy="144.76" rx="104.32" ry="21.46" style="fill: #BC57C2; transform-origin: 250.03px 144.76px;" id="el2wd1xn6dwvo" class="animable"></ellipse><g id="elq6ducr5yu9o"><g style="opacity: 0.1; transform-origin: 250.025px 144.76px;" class="animable" id="el4hcnl9jxy6f"><path d="M249.36,131.15c-5.52,0-6.23-1.28-6.23-2.4s.71-2.4,6.23-2.4,6.23,1.28,6.23,2.39S254.89,131.15,249.36,131.15Z" id="el0kosrw7dzl4f" class="animable" style="transform-origin: 249.36px 128.75px;"></path><path d="M204.26,133.39a18,18,0,0,1-4.46-.47c-1.74-.54-1.82-1.65-1.77-2.11.19-1.74,2.61-2,3.77-2.11.75-.07,1.6-.11,2.45-.11a17.43,17.43,0,0,1,4.45.47c1.75.54,1.82,1.65,1.77,2.1-.19,1.74-2.6,2-3.77,2.11A23.31,23.31,0,0,1,204.26,133.39Z" id="el4mn03s3qwsh" class="animable" style="transform-origin: 204.25px 130.989px;"></path><path d="M171.41,139.32c-.85,0-1.7,0-2.45-.11-1.16-.12-3.58-.37-3.77-2.11-.05-.45,0-1.56,1.77-2.1a17.57,17.57,0,0,1,4.45-.49,23.65,23.65,0,0,1,2.45.12c1.16.12,3.58.36,3.77,2.1.05.46,0,1.57-1.77,2.11A18,18,0,0,1,171.41,139.32Z" id="elxlbr9jc9lcl" class="animable" style="transform-origin: 171.41px 136.915px;"></path><path d="M159.63,147.35c-5.52,0-6.23-1.28-6.23-2.4s.71-2.4,6.23-2.41,6.23,1.28,6.23,2.4S165.16,147.34,159.63,147.35Z" id="el06bolu7fvslc" class="animable" style="transform-origin: 159.63px 144.945px;"></path><path d="M172.08,155.33a18,18,0,0,1-4.45-.48c-1.75-.53-1.83-1.65-1.78-2.1.19-1.74,2.61-2,3.77-2.11a23.65,23.65,0,0,1,2.45-.12,17.5,17.5,0,0,1,4.45.48c1.75.53,1.83,1.64,1.78,2.1-.19,1.74-2.61,2-3.77,2.11A23.65,23.65,0,0,1,172.08,155.33Z" id="elfdgmwvmue14" class="animable" style="transform-origin: 172.075px 152.924px;"></path><path d="M205.4,161.12A23.45,23.45,0,0,1,203,161c-1.16-.12-3.58-.36-3.78-2.1-.05-.46,0-1.57,1.77-2.11a18.08,18.08,0,0,1,4.46-.48c.85,0,1.69,0,2.44.11,1.16.12,3.58.37,3.78,2.11.05.45,0,1.56-1.77,2.1A18.16,18.16,0,0,1,205.4,161.12Z" id="el8zcyj2op6oo" class="animable" style="transform-origin: 205.445px 158.715px;"></path><path d="M250.69,163.17c-5.52,0-6.23-1.28-6.23-2.4s.71-2.41,6.23-2.41,6.23,1.28,6.23,2.4S256.22,163.16,250.69,163.17Z" id="el1j5rp547ajk" class="animable" style="transform-origin: 250.69px 160.765px;"></path><path d="M295.81,160.93a18,18,0,0,1-4.46-.48c-1.75-.54-1.82-1.65-1.77-2.1.19-1.74,2.61-2,3.77-2.11a23.65,23.65,0,0,1,2.45-.12,17.54,17.54,0,0,1,4.45.48c1.75.53,1.82,1.64,1.77,2.1-.19,1.74-2.61,2-3.77,2.11C297.5,160.88,296.66,160.92,295.81,160.93Z" id="el6tehprxq41f" class="animable" style="transform-origin: 295.8px 158.525px;"></path><path d="M328.64,155a23.31,23.31,0,0,1-2.44-.12c-1.16-.12-3.58-.36-3.78-2.1-.05-.45,0-1.57,1.77-2.11a18.08,18.08,0,0,1,4.46-.48,23.45,23.45,0,0,1,2.44.12c1.16.11,3.58.36,3.78,2.1.05.45,0,1.57-1.77,2.1A17.68,17.68,0,0,1,328.64,155Z" id="el94nhhv2zyps" class="animable" style="transform-origin: 328.645px 152.595px;"></path><path d="M340.42,147c-5.52,0-6.23-1.28-6.23-2.4s.71-2.4,6.23-2.41,6.23,1.28,6.23,2.4S346,147,340.42,147Z" id="el4pj5o9h1isi" class="animable" style="transform-origin: 340.42px 144.595px;"></path><path d="M328,139a17.57,17.57,0,0,1-4.46-.48c-1.75-.53-1.82-1.64-1.77-2.1.19-1.74,2.61-2,3.77-2.11.75-.07,1.59-.11,2.45-.12a18,18,0,0,1,4.45.48c1.75.54,1.82,1.65,1.77,2.1-.19,1.74-2.61,2-3.77,2.11A23.45,23.45,0,0,1,328,139Z" id="el2g6kzk0e3il" class="animable" style="transform-origin: 327.99px 136.596px;"></path><path d="M294.65,133.2c-.86,0-1.7,0-2.45-.11-1.16-.12-3.58-.37-3.77-2.11-.05-.45,0-1.56,1.77-2.1a17.5,17.5,0,0,1,4.45-.48,21.24,21.24,0,0,1,2.45.11c1.16.12,3.58.36,3.77,2.1.05.46,0,1.57-1.77,2.11A18,18,0,0,1,294.65,133.2Z" id="el2s0ntspr6g7" class="animable" style="transform-origin: 294.65px 130.799px;"></path></g></g><path d="M253.89,128.75c0,.44-2,.8-4.53.8s-4.53-.35-4.53-.8,2-.8,4.53-.8S253.89,128.3,253.89,128.75Z" style="fill: #BC57C2; transform-origin: 249.36px 128.75px;" id="elqqw8fssvdb" class="animable"></path><path d="M208.18,130.58c1.25.39.51.88-1.66,1.1a19.52,19.52,0,0,1-6.19-.29c-1.25-.38-.51-.87,1.66-1.09A19.59,19.59,0,0,1,208.18,130.58Z" style="fill: #BC57C2; transform-origin: 204.255px 130.989px;" id="eljarr710t1i" class="animable"></path><path d="M173.67,136.22c2.17.22,2.91.71,1.66,1.09a19.48,19.48,0,0,1-6.19.3c-2.16-.22-2.9-.71-1.65-1.09A19.43,19.43,0,0,1,173.67,136.22Z" style="fill: #BC57C2; transform-origin: 171.41px 136.915px;" id="ellutxo2llzcl" class="animable"></path><path d="M159.63,144.14c2.5,0,4.53.36,4.53.8s-2,.81-4.53.81-4.53-.36-4.53-.8S157.13,144.15,159.63,144.14Z" style="fill: #BC57C2; transform-origin: 159.63px 144.945px;" id="elh4j3vug2hxk" class="animable"></path><path d="M169.81,152.23a19.82,19.82,0,0,1,6.19.29c1.25.38.51.87-1.66,1.1a19.82,19.82,0,0,1-6.19-.29C166.9,153,167.64,152.45,169.81,152.23Z" style="fill: #BC57C2; transform-origin: 172.075px 152.925px;" id="elu8n6xzm5f" class="animable"></path><path d="M201.48,158.31a19.82,19.82,0,0,1,6.19-.29c2.17.22,2.91.71,1.66,1.09a19.48,19.48,0,0,1-6.19.3C201,159.19,200.23,158.7,201.48,158.31Z" style="fill: #BC57C2; transform-origin: 205.408px 158.715px;" id="el6xl0jqma0ei" class="animable"></path><path d="M246.16,160.77c0-.45,2-.81,4.53-.81s4.53.36,4.53.8-2,.8-4.53.8S246.16,161.21,246.16,160.77Z" style="fill: #BC57C2; transform-origin: 250.69px 160.76px;" id="elcuej98a9f98" class="animable"></path><path d="M291.88,158.93c-1.25-.39-.51-.88,1.65-1.1a19.82,19.82,0,0,1,6.19.29c1.25.38.51.87-1.65,1.1A19.82,19.82,0,0,1,291.88,158.93Z" style="fill: #BC57C2; transform-origin: 295.8px 158.525px;" id="eleajjc0sxdl4" class="animable"></path><path d="M326.38,153.29c-2.17-.22-2.91-.71-1.66-1.09a19.48,19.48,0,0,1,6.19-.3c2.17.22,2.91.71,1.66,1.09A19.48,19.48,0,0,1,326.38,153.29Z" style="fill: #BC57C2; transform-origin: 328.645px 152.595px;" id="el9iscykso5wj" class="animable"></path><path d="M340.42,145.37c-2.5,0-4.53-.36-4.53-.8s2-.8,4.53-.81,4.53.36,4.53.8S342.92,145.37,340.42,145.37Z" style="fill: #BC57C2; transform-origin: 340.42px 144.565px;" id="el4gwzglj2w3r" class="animable"></path><path d="M330.24,137.28a19.77,19.77,0,0,1-6.18-.29c-1.26-.38-.51-.87,1.65-1.1a19.82,19.82,0,0,1,6.19.29C333.15,136.57,332.41,137.06,330.24,137.28Z" style="fill: #BC57C2; transform-origin: 327.978px 136.585px;" id="elp7kd01o2iym" class="animable"></path><path d="M298.57,131.2a20.08,20.08,0,0,1-6.19.3c-2.16-.22-2.91-.71-1.66-1.1a19.82,19.82,0,0,1,6.19-.3C299.08,130.32,299.82,130.81,298.57,131.2Z" style="fill: #BC57C2; transform-origin: 294.646px 130.799px;" id="el68wsgj7azfa" class="animable"></path><g id="eln4pl1jzk9u"><g style="opacity: 0.5; transform-origin: 250.025px 144.755px;" class="animable" id="elha1lmf89ebb"><path d="M253.89,128.75c0,.44-2,.8-4.53.8s-4.53-.35-4.53-.8,2-.8,4.53-.8S253.89,128.3,253.89,128.75Z" style="fill: rgb(255, 255, 255); transform-origin: 249.36px 128.75px;" id="elw343y48pvy" class="animable"></path><path d="M208.18,130.58c1.25.39.51.88-1.66,1.1a19.52,19.52,0,0,1-6.19-.29c-1.25-.38-.51-.87,1.66-1.09A19.59,19.59,0,0,1,208.18,130.58Z" style="fill: rgb(255, 255, 255); transform-origin: 204.255px 130.989px;" id="elwzy2dzbk83n" class="animable"></path><path d="M173.67,136.22c2.17.22,2.91.71,1.66,1.09a19.48,19.48,0,0,1-6.19.3c-2.16-.22-2.9-.71-1.65-1.09A19.43,19.43,0,0,1,173.67,136.22Z" style="fill: rgb(255, 255, 255); transform-origin: 171.41px 136.915px;" id="elbob9gfdippk" class="animable"></path><path d="M159.63,144.14c2.5,0,4.53.36,4.53.8s-2,.81-4.53.81-4.53-.36-4.53-.8S157.13,144.15,159.63,144.14Z" style="fill: rgb(255, 255, 255); transform-origin: 159.63px 144.945px;" id="elt7gkub6a2jg" class="animable"></path><path d="M169.81,152.23a19.82,19.82,0,0,1,6.19.29c1.25.38.51.87-1.66,1.1a19.82,19.82,0,0,1-6.19-.29C166.9,153,167.64,152.45,169.81,152.23Z" style="fill: rgb(255, 255, 255); transform-origin: 172.075px 152.925px;" id="ely87687h41xp" class="animable"></path><path d="M201.48,158.31a19.82,19.82,0,0,1,6.19-.29c2.17.22,2.91.71,1.66,1.09a19.48,19.48,0,0,1-6.19.3C201,159.19,200.23,158.7,201.48,158.31Z" style="fill: rgb(255, 255, 255); transform-origin: 205.408px 158.715px;" id="elmyay5noqpjr" class="animable"></path><path d="M246.16,160.77c0-.45,2-.81,4.53-.81s4.53.36,4.53.8-2,.8-4.53.8S246.16,161.21,246.16,160.77Z" style="fill: rgb(255, 255, 255); transform-origin: 250.69px 160.76px;" id="elrs6xiyt6yl" class="animable"></path><path d="M291.88,158.93c-1.25-.39-.51-.88,1.65-1.1a19.82,19.82,0,0,1,6.19.29c1.25.38.51.87-1.65,1.1A19.82,19.82,0,0,1,291.88,158.93Z" style="fill: rgb(255, 255, 255); transform-origin: 295.8px 158.525px;" id="el461gm4ossn" class="animable"></path><path d="M326.38,153.29c-2.17-.22-2.91-.71-1.66-1.09a19.48,19.48,0,0,1,6.19-.3c2.17.22,2.91.71,1.66,1.09A19.48,19.48,0,0,1,326.38,153.29Z" style="fill: rgb(255, 255, 255); transform-origin: 328.645px 152.595px;" id="el4icspooctyp" class="animable"></path><path d="M340.42,145.37c-2.5,0-4.53-.36-4.53-.8s2-.8,4.53-.81,4.53.36,4.53.8S342.92,145.37,340.42,145.37Z" style="fill: rgb(255, 255, 255); transform-origin: 340.42px 144.565px;" id="elgd7awu8pfa9" class="animable"></path><path d="M330.24,137.28a19.77,19.77,0,0,1-6.18-.29c-1.26-.38-.51-.87,1.65-1.1a19.82,19.82,0,0,1,6.19.29C333.15,136.57,332.41,137.06,330.24,137.28Z" style="fill: rgb(255, 255, 255); transform-origin: 327.978px 136.585px;" id="elo59a7vii3x" class="animable"></path><path d="M298.57,131.2a20.08,20.08,0,0,1-6.19.3c-2.16-.22-2.91-.71-1.66-1.1a19.82,19.82,0,0,1,6.19-.3C299.08,130.32,299.82,130.81,298.57,131.2Z" style="fill: rgb(255, 255, 255); transform-origin: 294.646px 130.799px;" id="elg627cmjgg6l" class="animable"></path></g></g><path d="M329.65,152.11A3.28,3.28,0,0,1,329,154l-.4.54-5.53,7.3L177,162l-5.6-7.36-.36-.46h0a3.41,3.41,0,0,1-.64-1.91c0-8.3,35.63-15,79.6-15.08S329.64,143.81,329.65,152.11Z" style="fill: #BC57C2; transform-origin: 250.025px 149.595px;" id="eldcax6fzknhg" class="animable"></path><g id="elpxipguj4tpn"><path d="M329.65,152.11A3.28,3.28,0,0,1,329,154l-.4.54-5.53,7.3L177,162l-5.6-7.36-.36-.46h0a3.41,3.41,0,0,1-.64-1.91c0-8.3,35.63-15,79.6-15.08S329.64,143.81,329.65,152.11Z" style="opacity: 0.1; transform-origin: 250.025px 149.595px;" class="animable" id="elb1ci1pvq6gr"></path></g><path d="M323.67,160.07c0,7.67-32.95,13.92-73.62,14s-73.63-6.16-73.64-13.82,33-13.92,73.62-13.95S323.66,152.41,323.67,160.07Z" style="fill: #BC57C2; transform-origin: 250.04px 160.185px;" id="elrurwlz5je9j" class="animable"></path><path d="M287.37,160.1c0,3.36-16.71,6.1-37.32,6.11s-37.34-2.69-37.34-6,16.71-6.1,37.33-6.11S287.37,156.75,287.37,160.1Z" style="fill: rgb(38, 50, 56); transform-origin: 250.04px 160.155px;" id="ell1a0pwj0yh8" class="animable"></path><g id="elryqcvvugujh"><g style="opacity: 0.4; transform-origin: 250.04px 160.135px;" class="animable" id="elozjyeous1o"><path d="M249.63,148.15a2.47,2.47,0,0,1,.9,1.88,2.42,2.42,0,0,1-.89,1.88,2.44,2.44,0,0,1-.9-1.88A2.49,2.49,0,0,1,249.63,148.15Z" style="fill: rgb(255, 255, 255); transform-origin: 249.635px 150.03px;" id="elrbps8m5cy6" class="animable"></path><path d="M215.64,149.82c2.39.48,4.31,1,6.12,1.55a30.1,30.1,0,0,1,4.57,1.7c-2.39-.48-4.31-1-6.12-1.55A30.1,30.1,0,0,1,215.64,149.82Z" style="fill: rgb(255, 255, 255); transform-origin: 220.985px 151.445px;" id="el09zi01m5ix3x" class="animable"></path><path d="M190.86,154.25c3.44.21,6.6.49,9.7.8s6.08.65,8.82,1.07c-3.44-.2-6.61-.49-9.71-.8S193.59,154.67,190.86,154.25Z" style="fill: rgb(255, 255, 255); transform-origin: 200.12px 155.185px;" id="ellewaihyjfnp" class="animable"></path><path d="M181.94,160.26c3.56-.13,7.12-.16,10.69-.17s7.12,0,10.69.15c-3.57.13-7.13.16-10.69.17S185.5,160.38,181.94,160.26Z" style="fill: rgb(255, 255, 255); transform-origin: 192.63px 160.249px;" id="elezklaps7sje" class="animable"></path><path d="M191.26,166.24c2.74-.43,5.74-.77,8.81-1.09s6.27-.6,9.71-.81c-2.73.42-5.74.76-8.81,1.08S194.7,166,191.26,166.24Z" style="fill: rgb(255, 255, 255); transform-origin: 200.52px 165.29px;" id="el2edrug7d1kn" class="animable"></path><path d="M216.34,170.57a31.57,31.57,0,0,1,4.57-1.71c1.8-.54,3.72-1.07,6.12-1.55a31.13,31.13,0,0,1-4.57,1.71C220.65,169.56,218.73,170.09,216.34,170.57Z" style="fill: rgb(255, 255, 255); transform-origin: 221.685px 168.94px;" id="elpc3ae450b0p" class="animable"></path><path d="M250.45,172.12a2.42,2.42,0,0,1,0-3.76,2.44,2.44,0,0,1,.9,1.88A2.49,2.49,0,0,1,250.45,172.12Z" style="fill: rgb(255, 255, 255); transform-origin: 250.452px 170.24px;" id="elp7bh9r6gys" class="animable"></path><path d="M284.44,170.45c-2.39-.48-4.31-1-6.12-1.55a30.1,30.1,0,0,1-4.57-1.7c2.4.48,4.32,1,6.12,1.55A29.07,29.07,0,0,1,284.44,170.45Z" style="fill: rgb(255, 255, 255); transform-origin: 279.095px 168.825px;" id="elz4c8bj34mda" class="animable"></path><path d="M309.22,166c-3.44-.21-6.6-.49-9.7-.8s-6.08-.65-8.82-1.07c3.44.2,6.61.49,9.71.8S306.49,165.6,309.22,166Z" style="fill: rgb(255, 255, 255); transform-origin: 299.96px 165.065px;" id="el2razfd10z9i" class="animable"></path><path d="M318.14,160c-3.56.13-7.12.16-10.69.16s-7.12,0-10.69-.14c3.57-.13,7.13-.16,10.69-.17S314.58,159.89,318.14,160Z" style="fill: rgb(255, 255, 255); transform-origin: 307.45px 160.004px;" id="el1jgdfog09bt" class="animable"></path><path d="M308.82,154c-2.74.43-5.74.77-8.81,1.09s-6.27.6-9.71.81c2.73-.42,5.74-.76,8.81-1.08S305.38,154.24,308.82,154Z" style="fill: rgb(255, 255, 255); transform-origin: 299.56px 154.95px;" id="elhc5f4116yqa" class="animable"></path><path d="M283.74,149.69a30,30,0,0,1-4.57,1.72c-1.8.54-3.72,1.07-6.12,1.55a30.44,30.44,0,0,1,4.57-1.71C279.43,150.71,281.35,150.18,283.74,149.69Z" style="fill: rgb(255, 255, 255); transform-origin: 278.395px 151.325px;" id="eljycipl3sht" class="animable"></path></g></g><g id="el9nhd2ardkn"><g style="opacity: 0.9; transform-origin: 250px 303.155px;" class="animable" id="el377az6rhefy"><path d="M365.27,451.43H134.73l85.49-292.71h0a.06.06,0,0,1,0,0c0-1.64,7.67-3.75,17.49-3.83h23c10.38.17,18.63,2.47,18.61,4.18,0,0,0,0,0,0h0Z" style="fill: #BC57C2; transform-origin: 250px 303.16px;" id="eld3us8n1tkuo" class="animable"></path><g id="eldzypjy55m8s"><g style="opacity: 0.7; transform-origin: 250px 303.16px;" class="animable" id="elbe8mngfzv19"><path d="M365.27,451.43H134.73l85.49-292.71h0a.06.06,0,0,1,0,0c0-1.64,7.67-3.75,17.49-3.83h23c10.38.17,18.63,2.47,18.61,4.18,0,0,0,0,0,0h0Z" style="fill: rgb(255, 255, 255); transform-origin: 250px 303.16px;" id="eltl71ete5y3" class="animable"></path></g></g><g id="elid8sllasoy"><g style="opacity: 0.4; transform-origin: 250.375px 303.155px;" class="animable" id="elulbw63pfe8h"><path d="M339.81,451.43H160.94l64.79-292.67h0s0,0,0,0c0-1.6,5.22-3.71,12-3.88h23c7.32.17,13.11,2.44,13.09,4.13,0,0,0,0,0,0h0Z" style="fill: rgb(255, 255, 255); transform-origin: 250.375px 303.155px;" id="eloky9yhx4taf" class="animable"></path></g></g><g id="eljligzysqb6m"><g style="opacity: 0.4; transform-origin: 251.34px 303.155px;" class="animable" id="ele18j3pjwzj5"><path d="M324.16,451.43H178.52l47.21-292.67h0s0,0,0,0c0-1.6,5.22-3.71,12-3.88h23c7.32.17,13.11,2.44,13.09,4.13,0,0,0,0,0,0h0Z" style="fill: rgb(255, 255, 255); transform-origin: 251.34px 303.155px;" id="elak7q991ve49" class="animable"></path></g></g></g></g><g id="elw9cq0fvv93t"><g style="opacity: 0.2; transform-origin: 248.219px 189.695px;" class="animable" id="elw9ylqvi0eze"><path d="M308.6,188c-.11-.18-.2-.36-.32-.55l-.43-.57a6.93,6.93,0,0,0-1.24-1.13,15.18,15.18,0,0,0-4.19-2,40.62,40.62,0,0,0-5.53-1.29c-1.9-.31-3.81-.56-5.71-.76l-2.83-.28-2.51-.21.52,1.78c1.52.06,3,.14,4.51.24,1.74.14,3.46.3,5.09.53a31,31,0,0,1,4.46.95,10.5,10.5,0,0,1,3.11,1.46,6.07,6.07,0,0,1,.93.88l.31.46c.09.16.15.32.23.48a3.6,3.6,0,0,1,.29,1.91,5.3,5.3,0,0,1-2.67,3.43,15.9,15.9,0,0,1-2.71,1.42,34.94,34.94,0,0,1-3.35,1.21c-1.83.56-3.84,1.05-5.95,1.48l-2.05.4c-.73.12-1.43.26-2.18.37l-1.11.18-1.13.16c-1.49.23-3,.42-4.59.62l-2.34.27-2.38.25-4.83.44-5.11.42-2.6.23L261,201l-1.29.13c-6.91.68-13.68,1.56-20.1,2.63-1.59.27-3.18.53-4.72.81l-4.52.82a74.74,74.74,0,0,1-8.17,1.1,36.44,36.44,0,0,1-3.78,0c-1.3,0-2.72-.15-4.21-.31-.74-.08-1.51-.19-2.28-.28l-1.18-.17-1.15-.17c-1-.16-2-.33-2.9-.51-.46-.09-.91-.18-1.34-.28l-1-.22-.92-.24-.47-.12-.43-.13-.87-.26-.81-.27-.41-.14-.36-.15-.74-.3-.68-.33a10.82,10.82,0,0,1-2.27-1.46l-.25-.2-.2-.2-.42-.43a5.71,5.71,0,0,1-.63-.88,5.52,5.52,0,0,1-.75-1.87,6.24,6.24,0,0,1-.06-1.93,9.29,9.29,0,0,1,1.42-3.85,14.74,14.74,0,0,1,1.33-1.88c.25-.31.49-.62.78-.92l.41-.46.45-.45a39.81,39.81,0,0,1,4.06-3.52,17.63,17.63,0,0,0,3.49-3.7c.93-1.27,1.71-2.56,2.64-3.81a21.17,21.17,0,0,1,1.49-1.85,14.22,14.22,0,0,1,1.89-1.71,10.71,10.71,0,0,1,2.48-1.38,10.11,10.11,0,0,1,2-.56l1-3.32-.79.06c-.56.06-1.11.13-1.64.21s-1,.18-1.53.29a12.75,12.75,0,0,0-4.32,1.75,6.92,6.92,0,0,0-2,2.05,8,8,0,0,0-.9,2.06c-.22.68-.37,1.36-.54,2a18,18,0,0,1-1.26,4,9.73,9.73,0,0,1-3,3.67l-4.59,3.43-1.12.87c-.38.29-.76.58-1.12.87s-.72.59-1.09.88-.71.6-1.07.89A26.38,26.38,0,0,0,188.8,195a10.36,10.36,0,0,0-1.22,2,5.34,5.34,0,0,0-.43,2.23,5,5,0,0,0,.19,1.18c.07.2.16.4.25.61s.09.2.15.31l.2.31a8.92,8.92,0,0,0,2.53,2.48c.3.2.6.41.92.61l1.06.57c.18.1.35.2.55.29l.59.27c.4.18.79.37,1.21.54l1.31.49c.23.08.44.17.67.24l.69.23,1.41.44,1.44.39c1,.27,2,.49,3,.71l.75.17.75.14.65.13.85.16,1.49.27,1.47.24c1,.16,2,.32,3.1.45,2.11.27,4.34.5,6.69.61a67.08,67.08,0,0,0,6.95,0c2.23-.11,4.26-.34,6.1-.59s3.53-.54,5.1-.83c3.17-.59,6.08-1.17,9-1.73,5.87-1.09,11.86-2.07,18.19-2.86l1.18-.15,1.19-.14,2.4-.28,5-.55c.87-.09,1.71-.2,2.57-.3l2.54-.34,2.5-.37,2.45-.41c1.62-.28,3.21-.59,4.76-.92l1.15-.26,1.13-.27.43-.1,1.8-.45c1.44-.4,2.86-.8,4.19-1.26s2.59-.92,3.77-1.43a20.41,20.41,0,0,0,5.73-3.47,10.49,10.49,0,0,0,.92-1l.36-.51c.13-.17.19-.35.3-.52a4.66,4.66,0,0,0,.51-2.16A5.4,5.4,0,0,0,308.6,188Z" style="fill: #BC57C2; transform-origin: 248.219px 189.695px;" id="eljbdb9t08i0f" class="animable"></path></g></g><g id="el4vfeotlf0ux"><path d="M365.94,252.63a17.15,17.15,0,0,0-2.47-7.74,27,27,0,0,0-5.61-6.6c-.56-.49-1.15-1-1.74-1.44l-1.63-1.22c-1.1-.8-2.23-1.59-3.4-2.35-2.32-1.54-4.8-3-7.31-4.31-5-2.7-10.25-4.93-14.91-7a122.91,122.91,0,0,1-12.65-6.4,82.4,82.4,0,0,1-10.54-7.42l-2.59-2.18c-1.07-.9-2.17-1.77-3.31-2.6a76.38,76.38,0,0,0-7.24-4.71c-.63-.36-1.27-.72-1.91-1.06l8.47,28.81c.89.51,1.79,1,2.7,1.49a147.18,147.18,0,0,0,15.8,6.91c5.17,2,9.93,3.69,14.19,5.64,2.14,1,4.17,2,6.14,3.07,1,.54,1.94,1.11,2.89,1.69l1.41.88,1.15.75a20.35,20.35,0,0,1,3.74,3.3,10.82,10.82,0,0,1,2.11,3.62,7,7,0,0,1-1.87,7.32,14.71,14.71,0,0,1-4.39,3,29.86,29.86,0,0,1-6.32,2.05,54.12,54.12,0,0,1-15.34.75,63.12,63.12,0,0,1-10.83-1.81c-1.55-.38-3.07-.83-4.57-1.33A83.13,83.13,0,0,1,292,257.6c-4.39-2.41-8.53-5.1-12.78-7.85a100,100,0,0,0-14.22-8,46,46,0,0,0-9.33-2.93c-.86-.17-1.74-.32-2.63-.45s-1.82-.2-2.69-.27c-1.74-.13-3.41-.17-5-.19A174.49,174.49,0,0,0,227,239c-2.92.3-5.81.62-8.67,1s-5.68.73-8.48,1.12c-4.81.67-9.55,1.38-14.24,2.08-6.23.92-12.36,1.8-18.38,2.52-5.25.62-10.43,1.1-15.32,1.18a54.44,54.44,0,0,1-7-.28,29.13,29.13,0,0,1-3.14-.48c-.51-.1-1-.22-1.47-.34l-.7-.2-.82-.28c-4.43-1.57-8.39-3.67-11.1-6.42a11.84,11.84,0,0,1-2.87-4.59,9.63,9.63,0,0,1-.46-2.55,10.36,10.36,0,0,1,.28-2.64c.8-3.55,3.6-7,7.37-9.74a46.81,46.81,0,0,1,13.67-6.6,42.46,42.46,0,0,1,8.06-1.27c2.82-.24,5.69-.42,8.57-.6,5.76-.37,11.59-.78,17.44-1.47,5.51-.62,11-1.51,16.49-2.65l2.89-9.9c-1.08.53-2,1-2.93,1.49s-2.24,1.09-3.39,1.6A101.65,101.65,0,0,1,188,205.3c-2.61.71-5.27,1.37-8,1.92s-5.48,1-8.27,1.42-5.63.74-8.48,1.12c-1.42.19-2.85.37-4.29.62a32.91,32.91,0,0,0-4.3,1A67.36,67.36,0,0,0,140,217.94c-4.4,2.73-8.22,6.12-10.36,10.24a14.38,14.38,0,0,0-1.22,3.19,12.64,12.64,0,0,0-.43,3.36,14.53,14.53,0,0,0,1.76,6.76,23,23,0,0,0,4.78,6.08,40.68,40.68,0,0,0,6.75,5c.31.19.6.37,1,.56l1.11.59c.76.37,1.53.75,2.33,1.06a44.34,44.34,0,0,0,4.87,1.66c1.65.47,3.32.83,5,1.13s3.31.54,4.95.74a117.51,117.51,0,0,0,19,.43c4-.21,8-.56,11.85-1,7.94-.9,15.59-2.22,23.06-3.64,2.78-.53,5.53-1.09,8.25-1.65l8.11-1.68c2.68-.54,5.33-1.1,7.95-1.58s5.2-.94,7.67-1.25c1.23-.15,2.44-.28,3.56-.34.56,0,1.08-.06,1.61-.07s1.07,0,1.61,0a34.2,34.2,0,0,1,6.85,1,73.86,73.86,0,0,1,14,5.53c9.23,4.53,18.12,10,28.81,13.86q4,1.45,8.27,2.6l1.12.28c2.5.63,5.07,1.17,7.69,1.58a79.38,79.38,0,0,0,18.9.89,48.63,48.63,0,0,0,9.89-1.84,33,33,0,0,0,9.09-4.22,20,20,0,0,0,6.3-6.67A14.64,14.64,0,0,0,365.94,252.63Z" style="fill: #BC57C2; opacity: 0.2; transform-origin: 246.976px 235.184px;" class="animable" id="el4iryv5vi6fb"></path></g><g id="elbtihduycwp9"><path d="M343.16,281.13a12.14,12.14,0,0,0-.53-2.94,15.91,15.91,0,0,0-3.13-5.6,25.28,25.28,0,0,0-5.32-4.65,40.19,40.19,0,0,0-6.59-3.5c-.29-.13-.56-.25-.89-.37l-1-.38c-.69-.23-1.4-.46-2.1-.63a35.41,35.41,0,0,0-4.25-.83,40.31,40.31,0,0,0-4.18-.38c-1.38-.07-2.73-.07-4.07-.05-.52,0-1,0-1.55.06l3,10.05.42-.08a40.85,40.85,0,0,1,5.55-.6,20.21,20.21,0,0,1,2.59,0c.42,0,.82.07,1.23.11l.61.09c.21,0,.47.1.71.14A27.62,27.62,0,0,1,334,275.8a12.85,12.85,0,0,1,3.43,3.6,9.8,9.8,0,0,1,1,2.14,10.45,10.45,0,0,1,.46,2.29c.3,3.15-1,6.42-3.25,9.26a29.79,29.79,0,0,1-9,7.32,26,26,0,0,1-5.22,1.85l-.76.2c-2.15.55-4.35,1.05-6.56,1.55-4.41,1-8.88,2.06-13.28,3.36a118.31,118.31,0,0,0-13,4.57c-1.06.44-2.09.91-3.13,1.39s-2.11,1-3,1.4c-1.83.84-3.7,1.61-5.57,2.3s-3.77,1.29-5.68,1.8-3.79.94-5.68,1.27a59.15,59.15,0,0,1-11.26.93,57.59,57.59,0,0,1-21.65-4.65c-1.71-.72-3.38-1.5-5-2.34-.8-.42-1.59-.85-2.35-1.29l-1.37-.8c-.51-.29-1-.6-1.54-.88a92.14,92.14,0,0,0-13.41-6.1A129.25,129.25,0,0,0,194,300.92c-4.56-1.07-8.74-2-12.58-3.14l-1.7-.53q-2-.64-3.9-1.38c-.91-.35-1.81-.72-2.7-1.1l-1.33-.59c-.38-.17-.75-.33-1.1-.51a20.62,20.62,0,0,1-3.79-2.39,11.64,11.64,0,0,1-2.59-2.85,6.34,6.34,0,0,1-.43-6.52,9.64,9.64,0,0,1,2.65-3.14,18.8,18.8,0,0,1,4.42-2.51,37.53,37.53,0,0,1,11.82-2.5c1.27-.08,2.56-.11,3.84-.08l1.32-4.54c-1.81-.17-3.64-.29-5.47-.32a56.93,56.93,0,0,0-15,1.5,32.08,32.08,0,0,0-7.26,2.77,20.49,20.49,0,0,0-6,4.72A13.94,13.94,0,0,0,151,284.3a13.59,13.59,0,0,0,.58,7.08,18.94,18.94,0,0,0,3.94,6.35,28.89,28.89,0,0,0,6.11,5c.57.36,1.15.7,1.74,1l1.59.86c1.07.55,2.16,1.1,3.27,1.61,2.22,1,4.53,2,6.85,2.83l1.15.41c4.27,1.51,8.5,2.69,12.35,3.84a111.3,111.3,0,0,1,11.57,4,79.35,79.35,0,0,1,10.18,5.11l2.59,1.57q1.6,1,3.27,1.83A70.88,70.88,0,0,0,223,329a75.13,75.13,0,0,0,15.24,4.32,71.07,71.07,0,0,0,16.44.92,59.8,59.8,0,0,0,15.65-3.13,57.2,57.2,0,0,0,12.89-6.39,60.39,60.39,0,0,0,5.28-3.94c.88-.72,1.51-1.28,2.25-1.91s1.47-1.21,2.24-1.79a64.28,64.28,0,0,1,10.16-6.36c1.85-.92,3.77-1.81,5.75-2.61s4-1.53,6.12-2.21,4.21-1.32,6.35-2l.44-.14c.92-.29,1.85-.58,2.76-.91a20.93,20.93,0,0,0,3.11-1.36,42.68,42.68,0,0,0,9.85-7.43A19.25,19.25,0,0,0,343,284,12.66,12.66,0,0,0,343.16,281.13Z" style="fill: #BC57C2; opacity: 0.2; transform-origin: 246.978px 298.079px;" class="animable" id="elnq158x4bd2f"></path></g></g><g id="freepik--Floor--inject-30" class="animable" style="transform-origin: 250px 451.43px;"><polygon points="26.58 451.43 82.43 451.18 138.29 451.1 250 450.93 361.71 451.1 417.57 451.18 473.42 451.43 417.57 451.67 361.71 451.76 250 451.93 138.29 451.76 82.43 451.67 26.58 451.43" style="fill: rgb(38, 50, 56); transform-origin: 250px 451.43px;" id="el3wavkh8r2o5" class="animable"></polygon></g><g id="freepik--Sparkles--inject-30" class="animable" style="transform-origin: 250px 302.02px;"><polygon points="340 397.65 335.37 398.5 334.34 403.38 333.31 398.5 328.68 397.65 333.29 396.52 334.34 391.91 335.39 396.52 340 397.65" style="fill: #BC57C2; transform-origin: 334.34px 397.645px;" id="elfx91dwjcxa" class="animable"></polygon><polygon points="215.17 254.2 210.54 255.06 209.51 259.94 208.48 255.06 203.85 254.2 208.46 253.07 209.51 248.46 210.56 253.07 215.17 254.2" style="fill: #BC57C2; transform-origin: 209.51px 254.2px;" id="elt20y4ufj6vj" class="animable"></polygon><polygon points="290.54 320.2 285.91 321.05 284.87 325.93 283.84 321.05 279.21 320.19 283.82 319.07 284.87 314.46 285.93 319.07 290.54 320.2" style="fill: #BC57C2; transform-origin: 284.875px 320.195px;" id="ellwwt7apscus" class="animable"></polygon><polygon points="255.13 166.13 250.5 166.99 249.47 171.87 248.43 166.99 243.8 166.13 248.41 165 249.47 160.39 250.52 165 255.13 166.13" style="fill: #BC57C2; transform-origin: 249.465px 166.13px;" id="elf98ch0c9pqr" class="animable"></polygon><polygon points="207.01 328.35 204.43 328.83 203.85 331.56 203.27 328.83 200.68 328.35 203.26 327.72 203.85 325.15 204.44 327.72 207.01 328.35" style="fill: #BC57C2; transform-origin: 203.845px 328.355px;" id="el17fwhz9kpuu" class="animable"></polygon><polygon points="333.46 415.13 330.87 415.61 330.29 418.33 329.71 415.61 327.13 415.13 329.7 414.5 330.29 411.92 330.88 414.5 333.46 415.13" style="fill: #BC57C2; transform-origin: 330.295px 415.125px;" id="el5yhuzvl74fa" class="animable"></polygon><polygon points="166.33 411.92 163.74 412.4 163.16 415.13 162.58 412.4 160 411.92 162.57 411.29 163.16 408.72 163.75 411.29 166.33 411.92" style="fill: #BC57C2; transform-origin: 163.165px 411.925px;" id="elxosbbp3gk8" class="animable"></polygon><polygon points="270.23 369.16 267.64 369.63 267.06 372.36 266.48 369.63 263.89 369.15 266.47 368.53 267.06 365.95 267.65 368.53 270.23 369.16" style="fill: #BC57C2; transform-origin: 267.06px 369.155px;" id="el4i8hiv8gk2d" class="animable"></polygon><polygon points="260.19 274.76 257.6 275.24 257.03 277.97 256.45 275.24 253.86 274.76 256.44 274.13 257.03 271.55 257.62 274.13 260.19 274.76" style="fill: #BC57C2; transform-origin: 257.025px 274.76px;" id="elw477a94jpt8" class="animable"></polygon><polygon points="227.31 415.13 224.73 415.61 224.15 418.33 223.57 415.61 220.99 415.13 223.56 414.5 224.15 411.92 224.74 414.5 227.31 415.13" style="fill: #BC57C2; transform-origin: 224.15px 415.125px;" id="el44d8n5e483i" class="animable"></polygon><polygon points="228.54 235.53 225.96 236.01 225.38 238.74 224.8 236.01 222.21 235.53 224.79 234.9 225.38 232.32 225.97 234.9 228.54 235.53" style="fill: #BC57C2; transform-origin: 225.375px 235.53px;" id="elfzlbgs5i3y" class="animable"></polygon><polygon points="268.3 204.14 265.71 204.62 265.13 207.35 264.56 204.62 261.97 204.14 264.54 203.51 265.13 200.93 265.72 203.51 268.3 204.14" style="fill: #BC57C2; transform-origin: 265.135px 204.14px;" id="eltqbph2ub7d" class="animable"></polygon><path d="M337.62,355.29a.75.75,0,0,0,0,1.5A.75.75,0,0,0,337.62,355.29Z" style="fill: #BC57C2; transform-origin: 337.62px 356.04px;" id="elz3pev6h9a8j" class="animable"></path><path d="M251.34,265.3a.75.75,0,0,0,0,1.5A.75.75,0,0,0,251.34,265.3Z" style="fill: #BC57C2; transform-origin: 251.34px 266.05px;" id="elxn73lgaayjm" class="animable"></path><path d="M242.87,176.91a.75.75,0,0,0,0,1.5A.75.75,0,0,0,242.87,176.91Z" style="fill: #BC57C2; transform-origin: 242.87px 177.66px;" id="elj5vkxqrv0r8" class="animable"></path><path d="M192.65,344.34a.75.75,0,0,0,0,1.5A.75.75,0,0,0,192.65,344.34Z" style="fill: #BC57C2; transform-origin: 192.65px 345.09px;" id="elqmhqtri21p" class="animable"></path><path d="M250.61,406a.75.75,0,0,0,0,1.5A.75.75,0,0,0,250.61,406Z" style="fill: #BC57C2; transform-origin: 250.61px 406.75px;" id="elk185dszsnn" class="animable"></path><path d="M329.9,331.15a.53.53,0,0,0,0,1.06A.53.53,0,0,0,329.9,331.15Z" style="fill: #BC57C2; transform-origin: 329.9px 331.68px;" id="el4d3fgqrteuw" class="animable"></path><path d="M165,442.59a.53.53,0,0,0,0,1.06A.53.53,0,0,0,165,442.59Z" style="fill: #BC57C2; transform-origin: 165px 443.12px;" id="elz388dni6f8" class="animable"></path><path d="M284.87,298.18a.53.53,0,0,0,0,1.06A.53.53,0,0,0,284.87,298.18Z" style="fill: #BC57C2; transform-origin: 284.87px 298.71px;" id="elws6iil0fdwe" class="animable"></path><path d="M255,188.61a.53.53,0,0,0,0,1.06A.53.53,0,0,0,255,188.61Z" style="fill: #BC57C2; transform-origin: 255px 189.14px;" id="elg29sjxlydwb" class="animable"></path><path d="M217.58,200a.54.54,0,0,0,0,1.07A.54.54,0,0,0,217.58,200Z" style="fill: #BC57C2; transform-origin: 217.58px 200.535px;" id="elh561b432nns" class="animable"></path><path d="M216.35,312.83a.53.53,0,0,0,0,1.06A.53.53,0,0,0,216.35,312.83Z" style="fill: #BC57C2; transform-origin: 216.35px 313.36px;" id="el0hd7e4ji6gz7" class="animable"></path><path d="M295.06,267.25a1.44,1.44,0,0,0,0,2.88A1.44,1.44,0,0,0,295.06,267.25Z" style="fill: #BC57C2; transform-origin: 295.06px 268.69px;" id="elmqwre8d32nr" class="animable"></path><path d="M171.49,432.43a1.44,1.44,0,0,0,0,2.87A1.44,1.44,0,0,0,171.49,432.43Z" style="fill: #BC57C2; transform-origin: 171.49px 433.865px;" id="elwn3iqcvoris" class="animable"></path><path d="M223.14,308a1.44,1.44,0,0,0,0,2.87A1.44,1.44,0,0,0,223.14,308Z" style="fill: #BC57C2; transform-origin: 223.14px 309.435px;" id="elcm3f6copjtr" class="animable"></path><path d="M319.1,402.18a1.44,1.44,0,0,0,0,2.88A1.44,1.44,0,0,0,319.1,402.18Z" style="fill: #BC57C2; transform-origin: 319.1px 403.62px;" id="eltjw0zu5fy0e" class="animable"></path><path d="M258.18,221.16a1.44,1.44,0,0,0,0,2.87A1.44,1.44,0,0,0,258.18,221.16Z" style="fill: #BC57C2; transform-origin: 258.18px 222.595px;" id="el7ht0qd6axr" class="animable"></path><path d="M260.85,418.33a.54.54,0,0,0,0,1.07A.54.54,0,0,0,260.85,418.33Z" style="fill: #BC57C2; transform-origin: 260.85px 418.865px;" id="eltiwpiy3mz3r" class="animable"></path></g><defs>     <filter id="active" height="200%">         <feMorphology in="SourceAlpha" result="DILATED" operator="dilate" radius="2"></feMorphology>                <feFlood flood-color="#32DFEC" flood-opacity="1" result="PINK"></feFlood>        <feComposite in="PINK" in2="DILATED" operator="in" result="OUTLINE"></feComposite>        <feMerge>            <feMergeNode in="OUTLINE"></feMergeNode>            <feMergeNode in="SourceGraphic"></feMergeNode>        </feMerge>    </filter>    <filter id="hover" height="200%">        <feMorphology in="SourceAlpha" result="DILATED" operator="dilate" radius="2"></feMorphology>                <feFlood flood-color="#ff0000" flood-opacity="0.5" result="PINK"></feFlood>        <feComposite in="PINK" in2="DILATED" operator="in" result="OUTLINE"></feComposite>        <feMerge>            <feMergeNode in="OUTLINE"></feMergeNode>            <feMergeNode in="SourceGraphic"></feMergeNode>        </feMerge>            <feColorMatrix type="matrix" values="0   0   0   0   0                0   1   0   0   0                0   0   0   0   0                0   0   0   1   0 "></feColorMatrix>    </filter></defs><!-- Code injected by live-server -->
<script>
	// <![CDATA[  <-- For SVG support
	if ('WebSocket' in window) {
		(function () {
			function refreshCSS() {
				var sheets = [].slice.call(document.getElementsByTagName("link"));
				var head = document.getElementsByTagName("head")[0];
				for (var i = 0; i < sheets.length; ++i) {
					var elem = sheets[i];
					var parent = elem.parentElement || head;
					parent.removeChild(elem);
					var rel = elem.rel;
					if (elem.href && typeof rel != "string" || rel.length == 0 || rel.toLowerCase() == "stylesheet") {
						var url = elem.href.replace(/(&|\?)_cacheOverride=\d+/, '');
						elem.href = url + (url.indexOf('?') >= 0 ? '&' : '?') + '_cacheOverride=' + (new Date().valueOf());
					}
					parent.appendChild(elem);
				}
			}
			var protocol = window.location.protocol === 'http:' ? 'ws://' : 'wss://';
			var address = protocol + window.location.host + window.location.pathname + '/ws';
			var socket = new WebSocket(address);
			socket.onmessage = function (msg) {
				if (msg.data == 'reload') window.location.reload();
				else if (msg.data == 'refreshcss') refreshCSS();
			};
			if (sessionStorage && !sessionStorage.getItem('IsThisFirstTime_Log_From_LiveServer')) {
				console.log('Live reload enabled.');
				sessionStorage.setItem('IsThisFirstTime_Log_From_LiveServer', true);
			}
		})();
	}
	else {
		console.error('Upgrade your browser. This Browser is NOT supported WebSocket for Live-Reloading.');
	}
	// ]]>
</script>
</svg>